<?xml version="1.0" encoding="iso-8859-1"?>
<!-- Generator: Adobe Illustrator 19.0.0, SVG Export Plug-In . SVG Version: 6.00 Build 0)  -->
<svg version="1.1" id="Capa_1" xmlns="http://www.w3.org/2000/svg" xmlns:xlink="http://www.w3.org/1999/xlink" x="0px" y="0px"
	 viewBox="0 0 496 496" style="enable-background:new 0 0 496 496;" xml:space="preserve">
<linearGradient id="SVGID_1_" gradientUnits="userSpaceOnUse" x1="-46.1348" y1="562.3668" x2="22.6832" y2="631.1818" gradientTransform="matrix(8 0 0 -8 399 5013)">
	<stop  offset="0" style="stop-color:#AA6100"/>
	<stop  offset="0.093" style="stop-color:#AC6400"/>
	<stop  offset="0.165" style="stop-color:#B26E00"/>
	<stop  offset="0.231" style="stop-color:#BB7E00"/>
	<stop  offset="0.292" style="stop-color:#C99600"/>
	<stop  offset="0.35" style="stop-color:#DBB400"/>
	<stop  offset="0.405" style="stop-color:#F0D800"/>
	<stop  offset="0.439" style="stop-color:#FFF200"/>
	<stop  offset="0.474" style="stop-color:#FFD705"/>
	<stop  offset="0.519" style="stop-color:#FFBB0A"/>
	<stop  offset="0.565" style="stop-color:#FFA80E"/>
	<stop  offset="0.611" style="stop-color:#FF9C10"/>
	<stop  offset="0.658" style="stop-color:#FF9811"/>
	<stop  offset="0.732" style="stop-color:#FF9A12"/>
	<stop  offset="0.758" style="stop-color:#FFA118"/>
	<stop  offset="0.777" style="stop-color:#FFAC21"/>
	<stop  offset="0.793" style="stop-color:#FFBD2E"/>
	<stop  offset="0.806" style="stop-color:#FFD33F"/>
	<stop  offset="0.809" style="stop-color:#FFDA44"/>
	<stop  offset="0.879" style="stop-color:#DDA928"/>
	<stop  offset="0.96" style="stop-color:#B8750B"/>
	<stop  offset="1" style="stop-color:#AA6100"/>
</linearGradient>
<path style="fill:url(#SVGID_1_);" d="M272,343.768c-4.418,0-8-3.582-8-8V160.232c-0.001-4.418,3.58-8.001,7.998-8.002
	c1.542,0,3.051,0.445,4.346,1.282l135.768,87.768c3.711,2.397,4.777,7.349,2.379,11.061c-0.615,0.953-1.426,1.764-2.379,2.379
	l-135.768,87.768C275.049,343.324,273.541,343.769,272,343.768z M280,174.968v146.096L393.032,248L280,174.968z"/>
<linearGradient id="SVGID_2_" gradientUnits="userSpaceOnUse" x1="-56.1325" y1="572.3645" x2="12.6755" y2="641.1795" gradientTransform="matrix(8 0 0 -8 399 5013)">
	<stop  offset="0" style="stop-color:#AA6100"/>
	<stop  offset="0.093" style="stop-color:#AC6400"/>
	<stop  offset="0.165" style="stop-color:#B26E00"/>
	<stop  offset="0.231" style="stop-color:#BB7E00"/>
	<stop  offset="0.292" style="stop-color:#C99600"/>
	<stop  offset="0.35" style="stop-color:#DBB400"/>
	<stop  offset="0.405" style="stop-color:#F0D800"/>
	<stop  offset="0.439" style="stop-color:#FFF200"/>
	<stop  offset="0.474" style="stop-color:#FFD705"/>
	<stop  offset="0.519" style="stop-color:#FFBB0A"/>
	<stop  offset="0.565" style="stop-color:#FFA80E"/>
	<stop  offset="0.611" style="stop-color:#FF9C10"/>
	<stop  offset="0.658" style="stop-color:#FF9811"/>
	<stop  offset="0.732" style="stop-color:#FF9A12"/>
	<stop  offset="0.758" style="stop-color:#FFA118"/>
	<stop  offset="0.777" style="stop-color:#FFAC21"/>
	<stop  offset="0.793" style="stop-color:#FFBD2E"/>
	<stop  offset="0.806" style="stop-color:#FFD33F"/>
	<stop  offset="0.809" style="stop-color:#FFDA44"/>
	<stop  offset="0.879" style="stop-color:#DDA928"/>
	<stop  offset="0.96" style="stop-color:#B8750B"/>
	<stop  offset="1" style="stop-color:#AA6100"/>
</linearGradient>
<path style="fill:url(#SVGID_2_);" d="M112,343.768c-4.418,0-8-3.582-8-8V160.232c-0.001-4.418,3.58-8.001,7.998-8.002
	c1.542,0,3.051,0.445,4.346,1.282l135.768,87.768c3.711,2.397,4.777,7.349,2.379,11.061c-0.615,0.953-1.426,1.764-2.379,2.379
	l-135.768,87.768C115.049,343.324,113.541,343.769,112,343.768z M120,174.968v146.096L233.032,248L120,174.968z"/>
<g>
	
		<linearGradient id="SVGID_3_" gradientUnits="userSpaceOnUse" x1="-49.1347" y1="565.3666" x2="19.6833" y2="634.1816" gradientTransform="matrix(8 0 0 -8 399 5013)">
		<stop  offset="0" style="stop-color:#AA6100"/>
		<stop  offset="0.093" style="stop-color:#AC6400"/>
		<stop  offset="0.165" style="stop-color:#B26E00"/>
		<stop  offset="0.231" style="stop-color:#BB7E00"/>
		<stop  offset="0.292" style="stop-color:#C99600"/>
		<stop  offset="0.35" style="stop-color:#DBB400"/>
		<stop  offset="0.405" style="stop-color:#F0D800"/>
		<stop  offset="0.439" style="stop-color:#FFF200"/>
		<stop  offset="0.474" style="stop-color:#FFD705"/>
		<stop  offset="0.519" style="stop-color:#FFBB0A"/>
		<stop  offset="0.565" style="stop-color:#FFA80E"/>
		<stop  offset="0.611" style="stop-color:#FF9C10"/>
		<stop  offset="0.658" style="stop-color:#FF9811"/>
		<stop  offset="0.732" style="stop-color:#FF9A12"/>
		<stop  offset="0.758" style="stop-color:#FFA118"/>
		<stop  offset="0.777" style="stop-color:#FFAC21"/>
		<stop  offset="0.793" style="stop-color:#FFBD2E"/>
		<stop  offset="0.806" style="stop-color:#FFD33F"/>
		<stop  offset="0.809" style="stop-color:#FFDA44"/>
		<stop  offset="0.879" style="stop-color:#DDA928"/>
		<stop  offset="0.96" style="stop-color:#B8750B"/>
		<stop  offset="1" style="stop-color:#AA6100"/>
	</linearGradient>
	<path style="fill:url(#SVGID_3_);" d="M456,496H40c-22.08-0.026-39.974-17.92-40-40V40C0.026,17.92,17.92,0.026,40,0h416
		c22.08,0.026,39.974,17.92,40,40v416C495.974,478.08,478.08,495.974,456,496z M40,16c-13.255,0-24,10.745-24,24v416
		c0,13.255,10.745,24,24,24l0,0h416c13.255,0,24-10.745,24-24l0,0V40c0-13.255-10.745-24-24-24H40z"/>
	
		<linearGradient id="SVGID_4_" gradientUnits="userSpaceOnUse" x1="-49.1347" y1="565.3666" x2="19.6833" y2="634.1816" gradientTransform="matrix(8 0 0 -8 399 5013)">
		<stop  offset="0" style="stop-color:#AA6100"/>
		<stop  offset="0.093" style="stop-color:#AC6400"/>
		<stop  offset="0.165" style="stop-color:#B26E00"/>
		<stop  offset="0.231" style="stop-color:#BB7E00"/>
		<stop  offset="0.292" style="stop-color:#C99600"/>
		<stop  offset="0.35" style="stop-color:#DBB400"/>
		<stop  offset="0.405" style="stop-color:#F0D800"/>
		<stop  offset="0.439" style="stop-color:#FFF200"/>
		<stop  offset="0.474" style="stop-color:#FFD705"/>
		<stop  offset="0.519" style="stop-color:#FFBB0A"/>
		<stop  offset="0.565" style="stop-color:#FFA80E"/>
		<stop  offset="0.611" style="stop-color:#FF9C10"/>
		<stop  offset="0.658" style="stop-color:#FF9811"/>
		<stop  offset="0.732" style="stop-color:#FF9A12"/>
		<stop  offset="0.758" style="stop-color:#FFA118"/>
		<stop  offset="0.777" style="stop-color:#FFAC21"/>
		<stop  offset="0.793" style="stop-color:#FFBD2E"/>
		<stop  offset="0.806" style="stop-color:#FFD33F"/>
		<stop  offset="0.809" style="stop-color:#FFDA44"/>
		<stop  offset="0.879" style="stop-color:#DDA928"/>
		<stop  offset="0.96" style="stop-color:#B8750B"/>
		<stop  offset="1" style="stop-color:#AA6100"/>
	</linearGradient>
	<path style="fill:url(#SVGID_4_);" d="M424,464H72c-22.08-0.026-39.974-17.92-40-40V72c0.026-22.08,17.92-39.974,40-40h352
		c22.08,0.026,39.974,17.92,40,40v352C463.974,446.08,446.08,463.974,424,464z M72,48c-13.255,0-24,10.745-24,24v352
		c0,13.255,10.745,24,24,24h352c13.255,0,24-10.745,24-24V72c0-13.255-10.745-24-24-24H72z"/>
</g>
<g>
</g>
<g>
</g>
<g>
</g>
<g>
</g>
<g>
</g>
<g>
</g>
<g>
</g>
<g>
</g>
<g>
</g>
<g>
</g>
<g>
</g>
<g>
</g>
<g>
</g>
<g>
</g>
<g>
</g>
</svg>
