<svg viewBox="0 0 512 512" xmlns="http://www.w3.org/2000/svg"><path d="m344.023438 241h16.976562v15c0 28.035156-10.914062 54.402344-30.746094 74.253906-28.476562 28.445313-72.4375 38.054688-109.96875 24.519532l-17.019531 25.53125c49.46875 20.976562 109.835937 9.539062 148.199219-28.839844 25.488281-25.503906 39.535156-59.402344 39.535156-95.464844v-15h16.976562l-31.976562-47.960938zm0 0"/><path d="m181.746094 181.746094c28.507812-28.460938 72.480468-38.054688 109.96875-24.519532l17.019531-25.53125c-49.453125-20.933593-109.804687-9.492187-148.199219 28.839844-25.488281 25.503906-39.535156 59.402344-39.535156 95.464844v15h-16.976562l31.976562 47.960938 31.976562-47.960938h-16.976562v-15c0-28.035156 10.914062-54.402344 30.746094-74.253906zm0 0"/><path d="m256 0c-140.609375 0-256 115.390625-256 256s115.390625 256 256 256 256-115.390625 256-256-115.390625-256-256-256zm-208.023438 241h43.699219c3.425781-38.40625 20.050781-74.078125 47.648438-101.675781 31.15625-31.15625 72.597656-48.324219 116.675781-48.324219 28.855469 0 57.246094 7.558594 82.117188 21.855469l13.902343 7.996093-49.730469 74.605469-11.9375-6.183593c-28.109374-14.542969-64.628906-9.066407-87.394531 13.683593-10.5625 10.5625-17.578125 23.730469-20.464843 38.042969h41.53125l-88.023438 132.039062zm372.347657 30c-3.425781 38.40625-20.050781 74.078125-47.648438 101.675781-31.15625 31.15625-72.597656 48.324219-116.675781 48.324219-28.855469 0-57.246094-7.558594-82.117188-21.855469l-13.902343-7.996093 49.730469-74.589844 11.925781 6.152344c28.195312 14.589843 64.640625 9.078124 87.40625-13.667969 10.5625-10.5625 17.578125-23.730469 20.464843-38.042969h-41.53125l88.023438-132.039062 89.023438 132.039062zm0 0"/></svg>