<svg viewBox="0 0 512 512" xmlns="http://www.w3.org/2000/svg"><path d="m136 196v41.953125l30-23.992187v-32.960938h165v13.785156l35.992188-28.785156-35.992188-28.785156v13.785156h-150c-24.8125 0-45 20.1875-45 45zm0 0"/><path d="m181 317.214844-35.992188 28.785156 17.476563 13.976562 18.515625 14.824219v-13.800781h150c24.8125 0 45-20.1875 45-45v-41.953125l-30 23.992187v32.960938h-165zm0 0"/><path d="m256 0c-140.609375 0-256 115.390625-256 256s115.390625 256 256 256 256-115.390625 256-256-115.390625-256-256-256zm150 316c0 41.351562-33.648438 75-75 75h-120v46.199219l-114.007812-91.199219 114.007812-91.214844v46.214844h105v-17.371094l90-72.015625zm-105-58.785156v-46.214844h-105v17.371094l-90 72.015625v-104.386719c0-41.351562 33.648438-75 75-75h120v-46.214844l114.007812 91.214844zm0 0"/></svg>