<svg viewBox="0 0 512 512" xmlns="http://www.w3.org/2000/svg"><path d="m376 271h-15v60h15c8.277344 0 15-6.722656 15-15v-30c0-8.277344-6.722656-15-15-15zm0 0"/><path d="m121 286v30c0 8.277344 6.722656 15 15 15h15v-60h-15c-8.277344 0-15 6.722656-15 15zm0 0"/><path d="m256 0c-140.609375 0-256 115.390625-256 256s115.390625 256 256 256 256-115.390625 256-256-115.390625-256-256-256zm165 316c0 24.8125-20.1875 45-45 45h-45v-120h30v-15c0-57.890625-47.109375-105-105-105s-105 47.109375-105 105v15h30v120h-45c-24.8125 0-45-20.1875-45-45v-30c0-19.53125 12.578125-36.023438 30-42.238281v-17.761719c0-74.441406 60.558594-135 135-135s135 60.558594 135 135v17.761719c17.421875 6.214843 30 22.707031 30 42.238281zm0 0"/></svg>