<svg viewBox="0 0 512 512" xmlns="http://www.w3.org/2000/svg"><path d="m288.578125 183.578125-32.578125 32.5625-32.578125-32.5625c-11.324219-11.339844-26.398437-17.578125-42.421875-17.578125s-31.097656 6.238281-42.421875 17.578125c-11.339844 11.335937-17.578125 26.398437-17.578125 42.421875s6.238281 31.085938 17.578125 42.421875l117.421875 117.4375 117.421875-117.4375c11.339844-11.335937 17.578125-26.398437 17.578125-42.421875s-6.238281-31.085938-17.578125-42.421875c-22.648437-22.675781-62.195313-22.675781-84.84375 0zm0 0"/><path d="m256 0c-140.609375 0-256 115.390625-256 256s115.390625 256 256 256 256-115.390625 256-256-115.390625-256-256-256zm138.632812 289.632812-138.632812 138.648438-138.632812-138.648438c-17.007813-16.992187-26.367188-39.59375-26.367188-63.632812s9.359375-46.640625 26.367188-63.632812c33.953124-34.015626 93.3125-34.015626 127.265624 0l11.367188 11.351562 11.367188-11.351562c33.953124-34.015626 93.3125-34.015626 127.265624 0 17.007813 16.992187 26.367188 39.59375 26.367188 63.632812s-9.359375 46.640625-26.367188 63.632812zm0 0"/></svg>