<svg viewBox="0 0 512 512" xmlns="http://www.w3.org/2000/svg"><path d="m151 226c-16.539062 0-30 13.460938-30 30s13.460938 30 30 30 30-13.460938 30-30-13.460938-30-30-30zm0 0"/><path d="m316 181c16.539062 0 30-13.460938 30-30s-13.460938-30-30-30-30 13.460938-30 30 13.460938 30 30 30zm0 0"/><path d="m316 391c16.539062 0 30-13.460938 30-30s-13.460938-30-30-30-30 13.460938-30 30 13.460938 30 30 30zm0 0"/><path d="m256 0c-140.609375 0-256 115.390625-256 256s115.390625 256 256 256 256-115.390625 256-256-115.390625-256-256-256zm-45 256c0 6.449219-1.289062 12.546875-3.179688 18.371094l67.382813 42.890625c10.722656-10.011719 25-16.261719 40.796875-16.261719 33.089844 0 60 26.910156 60 60s-26.910156 60-60 60-60-26.910156-60-60c0-6.449219 1.289062-12.546875 3.179688-18.371094l-67.382813-42.890625c-10.722656 10.011719-25 16.261719-40.796875 16.261719-33.089844 0-60-26.910156-60-60s26.910156-60 60-60c15.796875 0 30.074219 6.25 40.796875 16.261719l67.382813-42.890625c-1.890626-5.824219-3.179688-11.921875-3.179688-18.371094 0-33.089844 26.910156-60 60-60s60 26.910156 60 60-26.910156 60-60 60c-15.796875 0-30.074219-6.25-40.796875-16.261719l-67.382813 42.890625c1.890626 5.824219 3.179688 11.921875 3.179688 18.371094zm0 0"/></svg>