<svg viewBox="0 0 512 512" xmlns="http://www.w3.org/2000/svg"><path d="m305.46875 211c-5.316406 0-10.285156 2.855469-12.964844 7.441406l-21.910156 37.558594 21.910156 37.558594c2.679688 4.585937 7.644532 7.441406 12.964844 7.441406h10.53125v-90zm0 0"/><path d="m196.308594 188.207031c-13.390625-22.953125-38.203125-37.207031-64.777344-37.207031h-10.53125v30h10.53125c15.9375 0 30.835938 8.554688 38.863281 22.324219l13.375 22.921875 17.363281-29.765625zm0 0"/><path d="m266.605469 308.675781-13.375-22.921875-17.363281 29.765625 4.824218 8.273438c13.390625 22.953125 38.203125 37.207031 64.777344 37.207031h40.53125v13.785156l35.992188-28.785156-35.992188-28.785156v13.785156h-40.53125c-15.9375 0-30.835938-8.554688-38.863281-22.324219zm0 0"/><path d="m381.992188 166-35.992188-28.785156v13.785156h-40.53125c-26.574219 0-51.386719 14.253906-64.789062 37.207031l-70.285157 120.46875c-8.027343 13.769531-22.925781 22.324219-38.863281 22.324219h-10.53125v30h10.53125c26.574219 0 51.386719-14.253906 64.789062-37.207031l70.285157-120.46875c8.027343-13.769531 22.925781-22.324219 38.863281-22.324219h40.53125v13.785156zm0 0"/><path d="m256 0c-140.609375 0-256 115.390625-256 256s115.390625 256 256 256 256-115.390625 256-256-115.390625-256-256-256zm174.007812 346-114.007812 91.214844v-46.214844h-10.53125c-34.960938 0-67.59375-17.789062-86.96875-46.589844-19.375 28.800782-52.007812 46.589844-86.96875 46.589844h-40.53125v-90h40.53125c5.316406 0 10.285156-2.855469 12.964844-7.441406l21.910156-37.558594-21.910156-37.558594c-2.679688-4.585937-7.644532-7.441406-12.964844-7.441406h-40.53125v-90h40.53125c34.960938 0 67.59375 17.789062 86.96875 46.589844 19.375-28.800782 52.007812-46.589844 86.96875-46.589844h10.53125v-46.214844l114.007812 91.214844-112.488281 90zm0 0"/></svg>