<svg viewBox="0 0 512 512" xmlns="http://www.w3.org/2000/svg"><path d="m256 241c8.277344 0 15-6.722656 15-15v-90c0-8.277344-6.722656-15-15-15s-15 6.722656-15 15v90c0 8.277344 6.722656 15 15 15zm0 0"/><path d="m256 0c-140.609375 0-256 115.390625-256 256s115.390625 256 256 256 256-115.390625 256-256-115.390625-256-256-256zm-45 136c0-24.8125 20.1875-45 45-45s45 20.1875 45 45v90c0 24.8125-20.1875 45-45 45s-45-20.1875-45-45zm150 90c0 52.753906-39.25 96.128906-90 103.484375v31.515625h60v30h-150v-30h60v-31.515625c-50.75-7.355469-90-50.730469-90-103.484375v-60h30v60c0 41.351562 33.648438 75 75 75s75-33.648438 75-75v-60h30zm0 0"/></svg>