<svg height="480pt" viewBox="-8 0 480 480" width="480pt" xmlns="http://www.w3.org/2000/svg"><path d="m40 480c-4.417969 0-8-3.582031-8-8v-160c0-4.417969 3.582031-8 8-8s8 3.582031 8 8v160c0 4.417969-3.582031 8-8 8zm0 0" fill="#003f8a"/><path d="m40 256c-4.417969 0-8-3.582031-8-8v-240c0-4.417969 3.582031-8 8-8s8 3.582031 8 8v240c0 4.417969-3.582031 8-8 8zm0 0" fill="#003f8a"/><path d="m80 280c0 22.089844-17.910156 40-40 40s-40-17.910156-40-40 17.910156-40 40-40 40 17.910156 40 40zm0 0" fill="#ab2300"/><path d="m136 480c-4.417969 0-8-3.582031-8-8v-288c0-4.417969 3.582031-8 8-8s8 3.582031 8 8v288c0 4.417969-3.582031 8-8 8zm0 0" fill="#003f8a"/><path d="m136 128c-4.417969 0-8-3.582031-8-8v-112c0-4.417969 3.582031-8 8-8s8 3.582031 8 8v112c0 4.417969-3.582031 8-8 8zm0 0" fill="#003f8a"/><path d="m176 152c0 22.089844-17.910156 40-40 40s-40-17.910156-40-40 17.910156-40 40-40 40 17.910156 40 40zm0 0" fill="#ab2300"/><path d="m232 480c-4.417969 0-8-3.582031-8-8v-112c0-4.417969 3.582031-8 8-8s8 3.582031 8 8v112c0 4.417969-3.582031 8-8 8zm0 0" fill="#003f8a"/><path d="m232 304c-4.417969 0-8-3.582031-8-8v-288c0-4.417969 3.582031-8 8-8s8 3.582031 8 8v288c0 4.417969-3.582031 8-8 8zm0 0" fill="#003f8a"/><path d="m272 328c0 22.089844-17.910156 40-40 40s-40-17.910156-40-40 17.910156-40 40-40 40 17.910156 40 40zm0 0" fill="#ab2300"/><path d="m328 480c-4.417969 0-8-3.582031-8-8v-200c0-4.417969 3.582031-8 8-8s8 3.582031 8 8v200c0 4.417969-3.582031 8-8 8zm0 0" fill="#003f8a"/><path d="m328 216c-4.417969 0-8-3.582031-8-8v-200c0-4.417969 3.582031-8 8-8s8 3.582031 8 8v200c0 4.417969-3.582031 8-8 8zm0 0" fill="#003f8a"/><path d="m368 240c0 22.089844-17.910156 40-40 40s-40-17.910156-40-40 17.910156-40 40-40 40 17.910156 40 40zm0 0" fill="#ab2300"/><path d="m424 480c-4.417969 0-8-3.582031-8-8v-320c0-4.417969 3.582031-8 8-8s8 3.582031 8 8v320c0 4.417969-3.582031 8-8 8zm0 0" fill="#003f8a"/><path d="m424 96c-4.417969 0-8-3.582031-8-8v-80c0-4.417969 3.582031-8 8-8s8 3.582031 8 8v80c0 4.417969-3.582031 8-8 8zm0 0" fill="#003f8a"/><path d="m464 120c0 22.089844-17.910156 40-40 40s-40-17.910156-40-40 17.910156-40 40-40 40 17.910156 40 40zm0 0" fill="#ab2300"/></svg>