<svg height="472pt" viewBox="0 0 472 472" width="472pt" xmlns="http://www.w3.org/2000/svg"><path d="m432 216c0 119.292969-96.707031 216-216 216s-216-96.707031-216-216 96.707031-216 216-216 216 96.707031 216 216zm0 0" fill="#e0e0e2"/><path d="m288 216c0 39.765625-32.234375 72-72 72s-72-32.234375-72-72 32.234375-72 72-72 72 32.234375 72 72zm0 0" fill="#898890"/><path d="m256 216c0 22.089844-17.910156 40-40 40s-40-17.910156-40-40 17.910156-40 40-40 40 17.910156 40 40zm0 0" fill="#57565c"/><g fill="#ab2300"><path d="m320 432c0 17.671875-14.328125 32-32 32s-32-14.328125-32-32 14.328125-32 32-32 32 14.328125 32 32zm0 0"/><path d="m464 408c0 17.671875-14.328125 32-32 32s-32-14.328125-32-32 14.328125-32 32-32 32 14.328125 32 32zm0 0"/><path d="m320 320 144-32v-48l-144 32zm0 0"/></g><path d="m191.609375 406.398438c-.355469 0-.710937-.023438-1.066406-.070313-85.988281-11.542969-153.582031-79.273437-164.941407-165.289063-.574218-4.382812 2.511719-8.402343 6.894532-8.976562 4.382812-.574219 8.402344 2.515625 8.976562 6.898438 10.410156 78.847656 72.371094 140.933593 151.199219 151.503906 4.167969.5625 7.1875 4.253906 6.914063 8.453125-.277344 4.195312-3.757813 7.460937-7.960938 7.472656zm0 0" fill="#f1f2f2"/><path d="m398.496094 200.480469c-4.023438-.003907-7.417969-2.996094-7.929688-6.984375-10.1875-79.335938-72.621094-141.808594-151.949218-152.046875-4.195313-.757813-7.058594-4.671875-6.511719-8.898438.546875-4.226562 4.308593-7.285156 8.558593-6.949219 86.535157 11.179688 154.640626 79.320313 165.777344 165.863282.558594 4.382812-2.539062 8.390625-6.921875 8.949218-.339843.042969-.679687.0625-1.023437.066407zm0 0" fill="#f1f2f2"/><path d="m469 233.761719c-1.886719-1.53125-4.363281-2.117188-6.734375-1.601563l-144 32c-3.671875.816406-6.28125 4.078125-6.265625 7.839844v128.207031c-6.882812-5.292969-15.316406-8.175781-24-8.207031-22.089844 0-40 17.910156-40 40s17.910156 40 40 40 40-17.910156 40-40v-105.601562l128-28.4375v78.230468c-6.886719-5.289062-15.316406-8.167968-24-8.191406-22.089844 0-40 17.910156-40 40s17.910156 40 40 40 40-17.910156 40-40v-168c0-2.425781-1.105469-4.722656-3-6.238281zm-181 222.238281c-13.253906 0-24-10.746094-24-24s10.746094-24 24-24 24 10.746094 24 24-10.746094 24-24 24zm40-177.601562 128-28.4375v31.640624l-128 28.421876zm104 153.601562c-13.253906 0-24-10.746094-24-24s10.746094-24 24-24 24 10.746094 24 24-10.746094 24-24 24zm0 0" fill="#cd2a00"/></svg>