<svg height="464pt" viewBox="-80 0 464 464" width="464pt" xmlns="http://www.w3.org/2000/svg"><path d="m64 136v96h176v-232h-176zm0 0" fill="#cd2a00"/><path d="m240 328v-96h-176v232h176zm0 0" fill="#ab2300"/><path d="m0 0h64v72h-64zm0 0" fill="#c6c5ca"/><path d="m0 72h64v64h-64zm0 0" fill="#898890"/><path d="m0 136h64v64h-64zm0 0" fill="#c6c5ca"/><path d="m64 232v-32h-64v64h64zm0 0" fill="#898890"/><path d="m0 264h64v64h-64zm0 0" fill="#c6c5ca"/><path d="m0 328h64v64h-64zm0 0" fill="#898890"/><path d="m0 392h64v72h-64zm0 0" fill="#c6c5ca"/><path d="m240 0h64v72h-64zm0 0" fill="#898890"/><path d="m240 72h64v64h-64zm0 0" fill="#c6c5ca"/><path d="m240 136h64v64h-64zm0 0" fill="#898890"/><path d="m240 232v32h64v-64h-64zm0 0" fill="#c6c5ca"/><path d="m240 264h64v64h-64zm0 0" fill="#898890"/><path d="m240 328h64v64h-64zm0 0" fill="#c6c5ca"/><path d="m240 392h64v72h-64zm0 0" fill="#898890"/></svg>