<svg height="464pt" viewBox="0 -40 464 464" width="464pt" xmlns="http://www.w3.org/2000/svg"><path d="m448 16v304h-138.960938c-3.5-.003906-6.902343 1.148438-9.679687 3.28125l-23.039063 17.4375c-2.777343 2.132812-6.179687 3.285156-9.679687 3.28125h-69.28125c-3.464844.019531-6.839844-1.105469-9.597656-3.199219l-23.523438-17.601562c-2.757812-2.09375-6.132812-3.21875-9.597656-3.199219h-138.640625v-304c.027344-8.824219 7.175781-15.9726562 16-16h400c8.824219.0273438 15.972656 7.175781 16 16zm0 0" fill="#898890"/><path d="m40 24h384v256h-384zm0 0" fill="#83d8f4"/><g fill="#ab2300"><path d="m192 224c0 13.253906-10.746094 24-24 24s-24-10.746094-24-24 10.746094-24 24-24 24 10.746094 24 24zm0 0"/><path d="m304 192c0 13.253906-10.746094 24-24 24s-24-10.746094-24-24 10.746094-24 24-24 24 10.746094 24 24zm0 0"/><path d="m192 120 112-32v-32l-112 32zm0 0"/></g><path d="m309.054688 320c-3.488282 0-6.882813 1.140625-9.664063 3.246094l-23.101563 17.507812c-2.78125 2.105469-6.175781 3.246094-9.664062 3.246094h-69.289062c-3.460938 0-6.832032-1.121094-9.601563-3.199219l-23.46875-17.601562c-2.769531-2.078125-6.140625-3.199219-9.601563-3.199219h-154.664062v32c0 17.671875 14.328125 32 32 32h400c17.671875 0 32-14.328125 32-32v-32zm0 0" fill="#57565c"/><path d="m308.800781 49.601562c-2.003906-1.511718-4.601562-1.996093-7.015625-1.304687l-112 32c-3.433594.988281-5.792968 4.132813-5.785156 7.703125v108.449219c-4.84375-2.878907-10.367188-4.417969-16-4.449219-17.671875 0-32 14.328125-32 32s14.328125 32 32 32 32-14.328125 32-32v-97.96875l96-27.421875v65.839844c-4.84375-2.878907-10.367188-4.417969-16-4.449219-17.671875 0-32 14.328125-32 32s14.328125 32 32 32 32-14.328125 32-32v-136c0-2.519531-1.1875-4.890625-3.199219-6.398438zm-140.800781 190.398438c-8.835938 0-16-7.164062-16-16s7.164062-16 16-16 16 7.164062 16 16-7.164062 16-16 16zm32-145.96875 96-27.421875v15.359375l-96 27.421875zm80 113.96875c-8.835938 0-16-7.164062-16-16s7.164062-16 16-16 16 7.164062 16 16-7.164062 16-16 16zm0 0" fill="#cd2a00"/></svg>