<svg height="464pt" viewBox="-40 0 464 464" width="464pt" xmlns="http://www.w3.org/2000/svg"><path d="m48.003906 0h336v368h-336zm0 0" fill="#ffcd00"/><path d="m14.082031 382.078125c8.964844-9.042969 21.183594-14.117187 33.921875-14.078125v-368c-26.511718 0-47.99999975 21.492188-47.99999975 48v368c-.01562505-.347656.01171875-.699219.07812495-1.039062.1914068-12.371094 5.2187498-24.171876 13.9999998-32.882813zm0 0" fill="#cca400"/><g fill="#ab2300"><path d="m168.003906 264c0 13.253906-10.746094 24-24 24s-24-10.746094-24-24 10.746094-24 24-24 24 10.746094 24 24zm0 0"/><path d="m280.003906 232c0 13.253906-10.746094 24-24 24s-24-10.746094-24-24 10.746094-24 24-24 24 10.746094 24 24zm0 0"/><path d="m280.003906 120v-24l-112 32v32l112-32zm0 0"/></g><path d="m48.003906 368c-26.089844.011719-47.382812 20.878906-47.9218748 46.960938-.0664062.339843-.09375.691406-.07812495 1.039062 0 26.507812 21.48828175 48 47.99999975 48h336v-96zm0 0" fill="#ffe477"/><path d="m284.804688 89.601562c-2.011719-1.5-4.601563-1.980468-7.015626-1.304687l-112 32c-3.433593.988281-5.792968 4.132813-5.785156 7.703125v108.449219c-4.84375-2.878907-10.367187-4.417969-16-4.449219-17.671875 0-32 14.328125-32 32s14.328125 32 32 32 32-14.328125 32-32v-97.960938l96-27.429687v65.839844c-4.84375-2.878907-10.367187-4.417969-16-4.449219-17.671875 0-32 14.328125-32 32s14.328125 32 32 32 32-14.328125 32-32c-.03125-1.789062-.210937-3.570312-.535156-5.328125.328125-.851563.511719-1.757813.535156-2.671875v-128c0-2.519531-1.1875-4.890625-3.199218-6.398438zm-140.800782 190.398438c-8.835937 0-16-7.164062-16-16s7.164063-16 16-16c8.835938 0 16 7.164062 16 16s-7.164062 16-16 16zm32-130.609375v-15.359375l96-27.421875v15.359375zm80 98.609375c-8.835937 0-16-7.164062-16-16s7.164063-16 16-16c8.835938 0 16 7.164062 16 16s-7.164062 16-16 16zm0 0" fill="#cd2a00"/><path d="m384.003906 391.871094-192 .128906c-4.417968 0-8 3.582031-8 8s3.582032 8 8 8l192-.128906zm0 0" fill="#ffcd00"/><path d="m104.003906 424c-4.417968 0-8 3.582031-8 8s3.582032 8 8 8l280 .160156v-16zm0 0" fill="#ffcd00"/></svg>