<svg height="464pt" viewBox="0 0 464.0827 464" width="464pt" xmlns="http://www.w3.org/2000/svg"><path d="m389.136719 112.195312c1.875-5.179687 2.820312-10.652343 2.800781-16.160156 0-26.507812-21.488281-48-48-48-8.851562-.035156-17.53125 2.433594-25.039062 7.121094-18.875-40.058594-62.691407-62.023438-106.082032-53.179688s-75.109375 46.207032-76.796875 90.460938c-8.753906-8.023438-20.210937-12.449219-32.082031-12.402344-26.507812 0-48 21.492188-48 48-.035156 5.542969.941406 11.046875 2.878906 16.242188-32.671875 2.652344-58.058594 29.566406-58.800781 62.339844-.742187 32.773437 23.402344 60.808593 55.921875 64.9375 2.640625.320312 328 .480468 328 .480468 43.226562.078125 78.699219-34.195312 80.101562-77.398437 1.40625-43.203125-31.761718-79.710938-74.902343-82.441407zm0 0" fill="#3d9ae2"/><path d="m383.9375 312.035156c0 83.949219-68.050781 152-152 152-83.945312 0-152-68.050781-152-152 0-83.945312 68.054688-152 152-152 83.949219 0 152 68.054688 152 152zm0 0" fill="#ffcd00"/><g fill="#ab2300"><path d="m183.9375 384.035156c0 13.253906-10.746094 24-24 24s-24-10.746094-24-24 10.746094-24 24-24 24 10.746094 24 24zm0 0"/><path d="m295.9375 352.035156c0 13.253906-10.746094 24-24 24s-24-10.746094-24-24 10.746094-24 24-24 24 10.746094 24 24zm0 0"/><path d="m295.9375 216.035156-112 32v32l112-32zm0 0"/></g><path d="m300.738281 209.636719c-2.007812-1.503907-4.601562-1.984375-7.015625-1.304688l-112 32c-3.433594.988281-5.792968 4.132813-5.785156 7.703125v108.449219c-4.84375-2.878906-10.367188-4.414063-16-4.449219-17.671875 0-32 14.328125-32 32s14.328125 32 32 32 32-14.328125 32-32v-97.960937l96-27.429688v65.839844c-4.84375-2.878906-10.367188-4.414063-16-4.449219-17.671875 0-32 14.328125-32 32s14.328125 32 32 32 32-14.328125 32-32v-136c0-2.515625-1.183594-4.886718-3.199219-6.398437zm-140.800781 190.398437c-8.835938 0-16-7.164062-16-16 0-8.835937 7.164062-16 16-16s16 7.164063 16 16c0 8.835938-7.164062 16-16 16zm32-145.96875 96-27.421875v15.359375l-96 27.421875zm80 113.96875c-8.835938 0-16-7.164062-16-16 0-8.835937 7.164062-16 16-16s16 7.164063 16 16c0 8.835938-7.164062 16-16 16zm0 0" fill="#cd2a00"/></svg>