<svg height="464pt" viewBox="0 -24 464 464" width="464pt" xmlns="http://www.w3.org/2000/svg"><path d="m448 0h-432c-8.835938 0-16 7.164062-16 16v272c0 8.835938 7.164062 16 16 16h432c8.835938 0 16-7.164062 16-16v-272c0-8.835938-7.164062-16-16-16zm-8 280h-416v-256h416zm0 0" fill="#898890"/><path d="m24 24h416v256h-416zm0 0" fill="#83d8f4"/><g fill="#ab2300"><path d="m192 224c0 13.253906-10.746094 24-24 24s-24-10.746094-24-24 10.746094-24 24-24 24 10.746094 24 24zm0 0"/><path d="m304 192c0 13.253906-10.746094 24-24 24s-24-10.746094-24-24 10.746094-24 24-24 24 10.746094 24 24zm0 0"/><path d="m304 56-112 32v32l112-32zm0 0"/></g><path d="m264 384v-80h-64v80h-48v32h160v-32zm0 0" fill="#57565c"/><path d="m308.800781 49.601562c-2.003906-1.511718-4.601562-1.996093-7.015625-1.304687l-112 32c-3.433594.988281-5.792968 4.132813-5.785156 7.703125v108.449219c-4.84375-2.878907-10.367188-4.417969-16-4.449219-17.671875 0-32 14.328125-32 32s14.328125 32 32 32 32-14.328125 32-32v-97.96875l96-27.421875v65.839844c-4.84375-2.878907-10.367188-4.417969-16-4.449219-17.671875 0-32 14.328125-32 32s14.328125 32 32 32 32-14.328125 32-32v-136c0-2.519531-1.1875-4.890625-3.199219-6.398438zm-140.800781 190.398438c-8.835938 0-16-7.164062-16-16s7.164062-16 16-16 16 7.164062 16 16-7.164062 16-16 16zm32-145.96875 96-27.421875v15.359375l-96 27.421875zm80 113.96875c-8.835938 0-16-7.164062-16-16s7.164062-16 16-16 16 7.164062 16 16-7.164062 16-16 16zm0 0" fill="#cd2a00"/></svg>