<svg height="464pt" viewBox="-20 0 464 464" width="464pt" xmlns="http://www.w3.org/2000/svg"><path d="m336 464h-336v-368h96v-96h240zm0 0" fill="#ffcd00"/><g fill="#ab2300"><path d="m128 320c0 13.253906-10.746094 24-24 24s-24-10.746094-24-24 10.746094-24 24-24 24 10.746094 24 24zm0 0"/><path d="m240 288c0 13.253906-10.746094 24-24 24s-24-10.746094-24-24 10.746094-24 24-24 24 10.746094 24 24zm0 0"/><path d="m128 216 112-32v-32l-112 32zm0 0"/></g><path d="m96 0-96 96h96zm0 0" fill="#cca400"/><path d="m424 376c0 48.601562-39.398438 88-88 88s-88-39.398438-88-88 39.398438-88 88-88 88 39.398438 88 88zm0 0" fill="#83d8f4"/><path d="m244.800781 145.601562c-2.007812-1.503906-4.601562-1.984374-7.015625-1.304687l-112 32c-3.433594.988281-5.792968 4.132813-5.785156 7.703125v108.449219c-4.84375-2.878907-10.367188-4.417969-16-4.449219-17.671875 0-32 14.328125-32 32s14.328125 32 32 32 32-14.328125 32-32v-97.960938l96-27.429687v65.839844c-4.84375-2.878907-10.367188-4.417969-16-4.449219-17.671875 0-32 14.328125-32 32s14.328125 32 32 32 32-14.328125 32-32v-136c0-2.519531-1.1875-4.890625-3.199219-6.398438zm-140.800781 190.398438c-8.835938 0-16-7.164062-16-16s7.164062-16 16-16 16 7.164062 16 16-7.164062 16-16 16zm32-145.96875 96-27.421875v15.359375l-96 27.421875zm80 113.96875c-8.835938 0-16-7.164062-16-16s7.164062-16 16-16 16 7.164062 16 16-7.164062 16-16 16zm0 0" fill="#cd2a00"/><path d="m336 432c-4.417969 0-8-3.582031-8-8v-96c0-4.417969 3.582031-8 8-8s8 3.582031 8 8v96c0 4.417969-3.582031 8-8 8zm0 0" fill="#003f8a"/><path d="m336 432c-2.121094 0-4.15625-.84375-5.65625-2.34375l-33.9375-33.9375c-3.03125-3.136719-2.988281-8.128906.097656-11.214844 3.085938-3.085937 8.078125-3.128906 11.214844-.097656l28.28125 28.28125 28.28125-28.28125c3.136719-3.03125 8.128906-2.988281 11.214844.097656 3.085937 3.085938 3.128906 8.078125.097656 11.214844l-33.9375 33.9375c-1.5 1.5-3.535156 2.34375-5.65625 2.34375zm0 0" fill="#003f8a"/></svg>