<svg height="464pt" viewBox="0 0 464 464" width="464pt" xmlns="http://www.w3.org/2000/svg"><path d="m464 160v272c0 17.671875-14.328125 32-32 32h-400c-17.671875 0-32-14.328125-32-32v-272c0-26.507812 21.492188-48 48-48h368c26.507812 0 48 21.492188 48 48zm0 0" fill="#ffcd00"/><path d="m432 48h-200v-16c0-17.671875-14.328125-32-32-32h-168c-17.671875 0-32 14.328125-32 32v128c0-26.507812 21.492188-48 48-48h368c26.507812 0 48 21.492188 48 48v-80c0-17.671875-14.328125-32-32-32zm0 0" fill="#cca400"/><g fill="#ab2300"><path d="m184 360c0 13.253906-10.746094 24-24 24s-24-10.746094-24-24 10.746094-24 24-24 24 10.746094 24 24zm0 0"/><path d="m296 328c0 13.253906-10.746094 24-24 24s-24-10.746094-24-24 10.746094-24 24-24 24 10.746094 24 24zm0 0"/><path d="m184 256 112-32v-32l-112 32zm0 0"/></g><path d="m300.800781 185.601562c-2.007812-1.503906-4.601562-1.988281-7.015625-1.304687l-112 32c-3.433594.988281-5.792968 4.132813-5.785156 7.703125v108.449219c-4.84375-2.878907-10.367188-4.417969-16-4.449219-17.671875 0-32 14.328125-32 32s14.328125 32 32 32 32-14.328125 32-32v-97.960938l96-27.429687v65.839844c-4.84375-2.878907-10.367188-4.417969-16-4.449219-17.671875 0-32 14.328125-32 32s14.328125 32 32 32 32-14.328125 32-32v-136c0-2.519531-1.1875-4.890625-3.199219-6.398438zm-140.800781 190.398438c-8.835938 0-16-7.164062-16-16s7.164062-16 16-16 16 7.164062 16 16-7.164062 16-16 16zm32-130.609375v-15.359375l96-27.421875v15.359375zm80 98.609375c-8.835938 0-16-7.164062-16-16s7.164062-16 16-16 16 7.164062 16 16-7.164062 16-16 16zm0 0" fill="#cd2a00"/></svg>