<svg height="464pt" viewBox="-76 0 464 464" width="464pt" xmlns="http://www.w3.org/2000/svg"><path d="m32 88h224c17.671875 0 32 14.328125 32 32v224c0 17.671875-14.328125 32-32 32h-224c-17.671875 0-32-14.328125-32-32v-224c0-17.671875 14.328125-32 32-32zm0 0" fill="#83d8f4"/><path d="m48 0h192v88h-192zm0 0" fill="#898890"/><path d="m48 376h192v88h-192zm0 0" fill="#898890"/><g fill="#ab2300"><path d="m104 304c0 13.253906-10.746094 24-24 24s-24-10.746094-24-24 10.746094-24 24-24 24 10.746094 24 24zm0 0"/><path d="m216 272c0 13.253906-10.746094 24-24 24s-24-10.746094-24-24 10.746094-24 24-24 24 10.746094 24 24zm0 0"/><path d="m216 160v-24l-112 32v32l112-32zm0 0"/></g><path d="m304 208c4.417969 0 8-3.582031 8-8v-32c0-4.417969-3.582031-8-8-8h-16v48zm0 0" fill="#898890"/><path d="m304 304c4.417969 0 8-3.582031 8-8v-32c0-4.417969-3.582031-8-8-8h-16v48zm0 0" fill="#898890"/><path d="m220.800781 129.601562c-2.003906-1.511718-4.601562-1.996093-7.015625-1.304687l-112 32c-3.433594.988281-5.792968 4.132813-5.785156 7.703125v108.449219c-4.84375-2.878907-10.367188-4.417969-16-4.449219-17.671875 0-32 14.328125-32 32s14.328125 32 32 32 32-14.328125 32-32v-97.96875l96-27.421875v65.839844c-4.84375-2.878907-10.367188-4.417969-16-4.449219-17.671875 0-32 14.328125-32 32s14.328125 32 32 32 32-14.328125 32-32v-136c0-2.519531-1.1875-4.890625-3.199219-6.398438zm-140.800781 190.398438c-8.835938 0-16-7.164062-16-16s7.164062-16 16-16 16 7.164062 16 16-7.164062 16-16 16zm32-145.96875 96-27.421875v15.359375l-96 27.421875zm80 113.96875c-8.835938 0-16-7.164062-16-16s7.164062-16 16-16 16 7.164062 16 16-7.164062 16-16 16zm0 0" fill="#cd2a00"/></svg>