<svg height="480pt" viewBox="0 -4 480 480" width="480pt" xmlns="http://www.w3.org/2000/svg"><path d="m112 88h256v384h-256zm0 0" fill="#898890"/><path d="m320 360c0 44.183594-35.816406 80-80 80s-80-35.816406-80-80 35.816406-80 80-80 80 35.816406 80 80zm0 0" fill="#57565c"/><path d="m272 360c0 17.671875-14.328125 32-32 32s-32-14.328125-32-32 14.328125-32 32-32 32 14.328125 32 32zm0 0" fill="#83d8f4"/><path d="m288 184c0 26.507812-21.492188 48-48 48s-48-21.492188-48-48 21.492188-48 48-48 48 21.492188 48 48zm0 0" fill="#57565c"/><path d="m256 184c0 8.835938-7.164062 16-16 16s-16-7.164062-16-16 7.164062-16 16-16 16 7.164062 16 16zm0 0" fill="#83d8f4"/><path d="m432 72c0 8.835938-7.164062 16-16 16s-16-7.164062-16-16 7.164062-16 16-16 16 7.164062 16 16zm0 0" fill="#ab2300"/><path d="m56 304c0 8.835938-7.164062 16-16 16s-16-7.164062-16-16 7.164062-16 16-16 16 7.164062 16 16zm0 0" fill="#ab2300"/><path d="m56 104c0 13.253906-10.746094 24-24 24s-24-10.746094-24-24 10.746094-24 24-24 24 10.746094 24 24zm0 0" fill="#ab2300"/><path d="m440 240c0 13.253906-10.746094 24-24 24s-24-10.746094-24-24 10.746094-24 24-24 24 10.746094 24 24zm0 0" fill="#ab2300"/><g fill="#cd2a00"><path d="m416 96c-13.253906 0-24-10.746094-24-24s10.746094-24 24-24 24 10.746094 24 24-10.746094 24-24 24zm0-32c-4.417969 0-8 3.582031-8 8s3.582031 8 8 8 8-3.582031 8-8-3.582031-8-8-8zm0 0"/><path d="m432 80c-4.417969 0-8-3.582031-8-8v-64c0-4.417969 3.582031-8 8-8h32c4.417969 0 8 3.582031 8 8s-3.582031 8-8 8h-24v56c0 4.417969-3.582031 8-8 8zm0 0"/><path d="m40 328c-13.253906 0-24-10.746094-24-24s10.746094-24 24-24 24 10.746094 24 24-10.746094 24-24 24zm0-32c-4.417969 0-8 3.582031-8 8s3.582031 8 8 8 8-3.582031 8-8-3.582031-8-8-8zm0 0"/><path d="m56 312c-4.417969 0-8-3.582031-8-8v-64c0-4.417969 3.582031-8 8-8h32c4.417969 0 8 3.582031 8 8s-3.582031 8-8 8h-24v56c0 4.417969-3.582031 8-8 8zm0 0"/><path d="m32 136c-17.671875 0-32-14.328125-32-32s14.328125-32 32-32 32 14.328125 32 32-14.328125 32-32 32zm0-48c-8.835938 0-16 7.164062-16 16s7.164062 16 16 16 16-7.164062 16-16-7.164062-16-16-16zm0 0"/><path d="m56 112c-4.417969 0-8-3.582031-8-8v-96c0-4.417969 3.582031-8 8-8h32c4.417969 0 8 3.582031 8 8s-3.582031 8-8 8h-24v88c0 4.417969-3.582031 8-8 8zm0 0"/><path d="m416 272c-17.671875 0-32-14.328125-32-32s14.328125-32 32-32 32 14.328125 32 32-14.328125 32-32 32zm0-48c-8.835938 0-16 7.164062-16 16s7.164062 16 16 16 16-7.164062 16-16-7.164062-16-16-16zm0 0"/><path d="m440 248c-4.417969 0-8-3.582031-8-8v-96c0-4.417969 3.582031-8 8-8h32c4.417969 0 8 3.582031 8 8s-3.582031 8-8 8h-24v88c0 4.417969-3.582031 8-8 8zm0 0"/></g></svg>