<svg height="464pt" viewBox="0 0 464 464" width="464pt" xmlns="http://www.w3.org/2000/svg"><path d="m0 0h464v464h-464z" fill="#57565c"/><path d="m24 24h416v320h-416zm0 0" fill="#78b9eb"/><path d="m144 136-120 208h240zm0 0" fill="#007579"/><path d="m264 344h176l-88-144zm0 0" fill="#007579"/><path d="m296 128c0 17.671875-14.328125 32-32 32s-32-14.328125-32-32 14.328125-32 32-32 32 14.328125 32 32zm0 0" fill="#ff5023"/><g fill="#c6c5ca"><path d="m432 376h-80c-4.417969 0-8-3.582031-8-8s3.582031-8 8-8h80c4.417969 0 8 3.582031 8 8s-3.582031 8-8 8zm0 0"/><path d="m432 400h-112c-4.417969 0-8-3.582031-8-8s3.582031-8 8-8h112c4.417969 0 8 3.582031 8 8s-3.582031 8-8 8zm0 0"/><path d="m192 440h-160c-4.417969 0-8-3.582031-8-8s3.582031-8 8-8h160c4.417969 0 8 3.582031 8 8s-3.582031 8-8 8zm0 0"/></g></svg>