<svg height="480pt" viewBox="0 -8 480 480" width="480pt" xmlns="http://www.w3.org/2000/svg"><path d="m376 16c0-8.835938-7.164062-16-16-16h-240c-8.835938 0-16 7.164062-16 16v16h272zm0 0" fill="#1a6fb0"/><path d="m104 416v32c0 8.835938 7.164062 16 16 16h240c8.835938 0 16-7.164062 16-16v-32zm0 0" fill="#1a6fb0"/><path d="m104 32h272v384h-272zm0 0" fill="#83d8f4"/><g fill="#1b75bc"><path d="m408 360c-4.417969 0-8-3.582031-8-8v-240c0-4.417969 3.582031-8 8-8s8 3.582031 8 8v240c0 4.417969-3.582031 8-8 8zm0 0"/><path d="m440 320c-4.417969 0-8-3.582031-8-8v-160c0-4.417969 3.582031-8 8-8s8 3.582031 8 8v160c0 4.417969-3.582031 8-8 8zm0 0"/><path d="m472 280c-4.417969 0-8-3.582031-8-8v-80c0-4.417969 3.582031-8 8-8s8 3.582031 8 8v80c0 4.417969-3.582031 8-8 8zm0 0"/><path d="m72 360c-4.417969 0-8-3.582031-8-8v-240c0-4.417969 3.582031-8 8-8s8 3.582031 8 8v240c0 4.417969-3.582031 8-8 8zm0 0"/><path d="m40 320c-4.417969 0-8-3.582031-8-8v-160c0-4.417969 3.582031-8 8-8s8 3.582031 8 8v160c0 4.417969-3.582031 8-8 8zm0 0"/><path d="m8 280c-4.417969 0-8-3.582031-8-8v-80c0-4.417969 3.582031-8 8-8s8 3.582031 8 8v80c0 4.417969-3.582031 8-8 8zm0 0"/></g><path d="m248 448h-16c-4.417969 0-8-3.582031-8-8s3.582031-8 8-8h16c4.417969 0 8 3.582031 8 8s-3.582031 8-8 8zm0 0" fill="#f1f2f2"/></svg>