<svg height="464pt" viewBox="0 -36 464 464" width="464pt" xmlns="http://www.w3.org/2000/svg"><path d="m112 344-24 48h280l-24-48zm0 0" fill="#57565c"/><path d="m462.160156.398438c-151.835937 31.363281-308.484375 31.363281-460.320312 0l-1.839844-.398438v320l1.839844-.398438c49.542968-10.203124 99.707031-17.125 150.160156-20.722656v69.121094h24v-70.558594c34.640625-1.679687 69.308594-1.789062 104-.320312v70.878906h24v-69.601562c53.152344 3.351562 106.003906 10.4375 158.160156 21.203124l1.839844.398438v-320zm0 0" fill="#898890"/><path d="m24 29.144531v261.710938c41.789062-7.574219 83.957031-12.886719 126.320312-15.910157 8.15625-.578124 16.324219-1.066406 24.511719-1.472656 19.070313-.9375 38.265625-1.402344 57.039063-1.402344 16.441406 0 32.984375.363282 49.089844 1.066407 8.230468.335937 16.464843.742187 24.550781 1.3125 45.109375 2.863281 90.011719 8.339843 134.488281 16.398437v-261.695312c-68.632812 12.46875-138.246094 18.75-208 18.769531-69.753906-.023437-139.367188-6.304687-208-18.777344zm0 0" fill="#3d9ae2"/></svg>