<svg height="464pt" viewBox="0 -32 464.0827 464" width="464pt" xmlns="http://www.w3.org/2000/svg"><path d="m389.136719 112.195312c1.875-5.179687 2.820312-10.652343 2.800781-16.160156 0-26.507812-21.488281-48-48-48-8.851562-.035156-17.53125 2.433594-25.039062 7.121094-18.875-40.058594-62.691407-62.023438-106.082032-53.179688s-75.109375 46.207032-76.796875 90.460938c-8.753906-8.023438-20.210937-12.449219-32.082031-12.402344-26.507812 0-48 21.492188-48 48-.035156 5.542969.941406 11.046875 2.878906 16.242188-32.671875 2.652344-58.058594 29.566406-58.800781 62.339844-.742187 32.773437 23.402344 60.808593 55.921875 64.9375 2.640625.320312 328 .480468 328 .480468 43.226562.078125 78.699219-34.195312 80.101562-77.398437 1.40625-43.203125-31.761718-79.710938-74.902343-82.441407zm0 0" fill="#3d9ae2"/><path d="m183.9375 248.035156v24h96v-120h-96zm0 0" fill="#cd2a00"/><path d="m279.9375 296.035156v-24h-96v120h96zm0 0" fill="#ab2300"/><path d="m279.9375 152.035156h48v48h-48zm0 0" fill="#898890"/><path d="m279.9375 200.035156h48v48h-48zm0 0" fill="#e0e0e2"/><path d="m279.9375 248.035156v48h48v-24h-.136719.136719v-24zm0 0" fill="#898890"/><path d="m279.9375 296.035156h48v48h-48zm0 0" fill="#e0e0e2"/><path d="m279.9375 344.035156h48v48h-48zm0 0" fill="#898890"/><path d="m135.9375 152.035156h48v48h-48zm0 0" fill="#e0e0e2"/><path d="m135.9375 200.035156h48v48h-48zm0 0" fill="#898890"/><path d="m183.9375 272.035156v-24h-48v48h48zm0 0" fill="#e0e0e2"/><path d="m135.9375 296.035156h48v48h-48zm0 0" fill="#898890"/><path d="m135.9375 344.035156h48v48h-48zm0 0" fill="#e0e0e2"/><g fill="#57565c"><path d="m279.9375 280.035156h-96c-4.417969 0-8-3.582031-8-8v-120c0-4.417968 3.582031-8 8-8h96c4.417969 0 8 3.582032 8 8v120c0 4.417969-3.582031 8-8 8zm-88-16h80v-104h-80zm0 0"/><path d="m279.9375 400.035156h-96c-4.417969 0-8-3.582031-8-8v-120c0-4.417968 3.582031-8 8-8h96c4.417969 0 8 3.582032 8 8v120c0 4.417969-3.582031 8-8 8zm-88-16h80v-104h-80zm0 0"/><path d="m327.9375 208.035156h-48c-4.417969 0-8-3.582031-8-8v-48c0-4.417968 3.582031-8 8-8h48c4.417969 0 8 3.582032 8 8v48c0 4.417969-3.582031 8-8 8zm-40-16h32v-32h-32zm0 0"/><path d="m327.9375 256.035156h-48c-4.417969 0-8-3.582031-8-8v-48c0-4.417968 3.582031-8 8-8h48c4.417969 0 8 3.582032 8 8v48c0 4.417969-3.582031 8-8 8zm-40-16h32v-32h-32zm0 0"/><path d="m327.9375 304.035156h-48c-4.417969 0-8-3.582031-8-8v-48c0-4.417968 3.582031-8 8-8h48c4.417969 0 8 3.582032 8 8v48c0 4.417969-3.582031 8-8 8zm-40-16h32v-32h-32zm0 0"/><path d="m327.9375 352.035156h-48c-4.417969 0-8-3.582031-8-8v-48c0-4.417968 3.582031-8 8-8h48c4.417969 0 8 3.582032 8 8v48c0 4.417969-3.582031 8-8 8zm-40-16h32v-32h-32zm0 0"/><path d="m327.9375 400.035156h-48c-4.417969 0-8-3.582031-8-8v-48c0-4.417968 3.582031-8 8-8h48c4.417969 0 8 3.582032 8 8v48c0 4.417969-3.582031 8-8 8zm-40-16h32v-32h-32zm0 0"/><path d="m183.9375 208.035156h-48c-4.417969 0-8-3.582031-8-8v-48c0-4.417968 3.582031-8 8-8h48c4.417969 0 8 3.582032 8 8v48c0 4.417969-3.582031 8-8 8zm-40-16h32v-32h-32zm0 0"/><path d="m183.9375 256.035156h-48c-4.417969 0-8-3.582031-8-8v-48c0-4.417968 3.582031-8 8-8h48c4.417969 0 8 3.582032 8 8v48c0 4.417969-3.582031 8-8 8zm-40-16h32v-32h-32zm0 0"/><path d="m183.9375 304.035156h-48c-4.417969 0-8-3.582031-8-8v-48c0-4.417968 3.582031-8 8-8h48c4.417969 0 8 3.582032 8 8v48c0 4.417969-3.582031 8-8 8zm-40-16h32v-32h-32zm0 0"/><path d="m183.9375 352.035156h-48c-4.417969 0-8-3.582031-8-8v-48c0-4.417968 3.582031-8 8-8h48c4.417969 0 8 3.582032 8 8v48c0 4.417969-3.582031 8-8 8zm-40-16h32v-32h-32zm0 0"/><path d="m183.9375 400.035156h-48c-4.417969 0-8-3.582031-8-8v-48c0-4.417968 3.582031-8 8-8h48c4.417969 0 8 3.582032 8 8v48c0 4.417969-3.582031 8-8 8zm-40-16h32v-32h-32zm0 0"/></g></svg>