<svg height="464pt" viewBox="0 0 464 464" width="464pt" xmlns="http://www.w3.org/2000/svg"><path d="m464 160v272c0 17.671875-14.328125 32-32 32h-400c-17.671875 0-32-14.328125-32-32v-272c0-26.507812 21.492188-48 48-48h368c26.507812 0 48 21.492188 48 48zm0 0" fill="#ffcd00"/><path d="m432 48h-200v-16c0-17.671875-14.328125-32-32-32h-168c-17.671875 0-32 14.328125-32 32v128c0-26.507812 21.492188-48 48-48h368c26.507812 0 48 21.492188 48 48v-80c0-17.671875-14.328125-32-32-32zm0 0" fill="#cca400"/><path d="m184 264v24h96v-120h-96zm0 0" fill="#cd2a00"/><path d="m280 304v-24h-96v120h96zm0 0" fill="#ab2300"/><path d="m280 168h48v48h-48zm0 0" fill="#898890"/><path d="m280 216h48v48h-48zm0 0" fill="#e0e0e2"/><path d="m280 288v24h48v-48h-48zm0 0" fill="#898890"/><path d="m280 312h48v48h-48zm0 0" fill="#e0e0e2"/><path d="m280 360h48v48h-48zm0 0" fill="#898890"/><path d="m136 168h48v48h-48zm0 0" fill="#e0e0e2"/><path d="m136 216h48v48h-48zm0 0" fill="#898890"/><path d="m184 288v-24h-48v48h48zm0 0" fill="#e0e0e2"/><path d="m136 312h48v48h-48zm0 0" fill="#898890"/><path d="m136 360h48v48h-48zm0 0" fill="#e0e0e2"/><g fill="#57565c"><path d="m280 296h-96c-4.417969 0-8-3.582031-8-8v-120c0-4.417969 3.582031-8 8-8h96c4.417969 0 8 3.582031 8 8v120c0 4.417969-3.582031 8-8 8zm-88-16h80v-104h-80zm0 0"/><path d="m280 416h-96c-4.417969 0-8-3.582031-8-8v-120c0-4.417969 3.582031-8 8-8h96c4.417969 0 8 3.582031 8 8v120c0 4.417969-3.582031 8-8 8zm-88-16h80v-104h-80zm0 0"/><path d="m328 224h-48c-4.417969 0-8-3.582031-8-8v-48c0-4.417969 3.582031-8 8-8h48c4.417969 0 8 3.582031 8 8v48c0 4.417969-3.582031 8-8 8zm-40-16h32v-32h-32zm0 0"/><path d="m328 272h-48c-4.417969 0-8-3.582031-8-8v-48c0-4.417969 3.582031-8 8-8h48c4.417969 0 8 3.582031 8 8v48c0 4.417969-3.582031 8-8 8zm-40-16h32v-32h-32zm0 0"/><path d="m328 320h-48c-4.417969 0-8-3.582031-8-8v-48c0-4.417969 3.582031-8 8-8h48c4.417969 0 8 3.582031 8 8v48c0 4.417969-3.582031 8-8 8zm-40-16h32v-32h-32zm0 0"/><path d="m328 368h-48c-4.417969 0-8-3.582031-8-8v-48c0-4.417969 3.582031-8 8-8h48c4.417969 0 8 3.582031 8 8v48c0 4.417969-3.582031 8-8 8zm-40-16h32v-32h-32zm0 0"/><path d="m328 416h-48c-4.417969 0-8-3.582031-8-8v-48c0-4.417969 3.582031-8 8-8h48c4.417969 0 8 3.582031 8 8v48c0 4.417969-3.582031 8-8 8zm-40-16h32v-32h-32zm0 0"/><path d="m184 224h-48c-4.417969 0-8-3.582031-8-8v-48c0-4.417969 3.582031-8 8-8h48c4.417969 0 8 3.582031 8 8v48c0 4.417969-3.582031 8-8 8zm-40-16h32v-32h-32zm0 0"/><path d="m184 272h-48c-4.417969 0-8-3.582031-8-8v-48c0-4.417969 3.582031-8 8-8h48c4.417969 0 8 3.582031 8 8v48c0 4.417969-3.582031 8-8 8zm-40-16h32v-32h-32zm0 0"/><path d="m184 320h-48c-4.417969 0-8-3.582031-8-8v-48c0-4.417969 3.582031-8 8-8h48c4.417969 0 8 3.582031 8 8v48c0 4.417969-3.582031 8-8 8zm-40-16h32v-32h-32zm0 0"/><path d="m184 368h-48c-4.417969 0-8-3.582031-8-8v-48c0-4.417969 3.582031-8 8-8h48c4.417969 0 8 3.582031 8 8v48c0 4.417969-3.582031 8-8 8zm-40-16h32v-32h-32zm0 0"/><path d="m184 416h-48c-4.417969 0-8-3.582031-8-8v-48c0-4.417969 3.582031-8 8-8h48c4.417969 0 8 3.582031 8 8v48c0 4.417969-3.582031 8-8 8zm-40-16h32v-32h-32zm0 0"/></g></svg>