<svg height="464pt" viewBox="-48 0 464 464" width="464pt" xmlns="http://www.w3.org/2000/svg"><path d="m64 0h240v464h-240zm0 0" fill="#ab2300"/><path d="m0 0h64v72h-64zm0 0" fill="#c6c5ca"/><path d="m0 72h64v64h-64zm0 0" fill="#898890"/><path d="m0 136h64v64h-64zm0 0" fill="#c6c5ca"/><path d="m0 200h64v64h-64zm0 0" fill="#898890"/><path d="m0 264h64v64h-64zm0 0" fill="#c6c5ca"/><path d="m0 328h64v64h-64zm0 0" fill="#898890"/><path d="m0 392h64v72h-64zm0 0" fill="#c6c5ca"/><path d="m304 0h64v72h-64zm0 0" fill="#898890"/><path d="m304 72h64v64h-64zm0 0" fill="#c6c5ca"/><path d="m304 136h64v64h-64zm0 0" fill="#898890"/><path d="m304 200h64v64h-64zm0 0" fill="#c6c5ca"/><path d="m304 264h64v64h-64zm0 0" fill="#898890"/><path d="m304 328h64v64h-64zm0 0" fill="#c6c5ca"/><path d="m304 392h64v72h-64zm0 0" fill="#898890"/><path d="m272 232c0 48.601562-39.398438 88-88 88s-88-39.398438-88-88 39.398438-88 88-88 88 39.398438 88 88zm0 0" fill="#ed1c24"/><path d="m152 272 80-40-80-40zm0 0" fill="#f1f2f2"/></svg>