<svg height="464pt" viewBox="0 0 464 464" width="464pt" xmlns="http://www.w3.org/2000/svg"><path d="m0 0h464v352h-464zm0 0" fill="#ab2300"/><path d="m0 384h464v80h-464zm0 0" fill="#57565c"/><path d="m80 440c8.835938 0 16-7.164062 16-16h-32c0 8.835938 7.164062 16 16 16zm0 0" fill="#ffcd00"/><path d="m80 408c-8.835938 0-16 7.164062-16 16h32c0-8.835938-7.164062-16-16-16zm0 0" fill="#ffcd00"/><path d="m328 176c0 53.019531-42.980469 96-96 96s-96-42.980469-96-96 42.980469-96 96-96 96 42.980469 96 96zm0 0" fill="#ed1c24"/><g fill="#f1f2f2"><path d="m200 128v96l88-48zm0 0"/><path d="m432 416h-329.472656c-3.339844-9.585938-12.378906-16.007812-22.527344-16.007812s-19.1875 6.421874-22.527344 16.007812h-25.472656c-4.417969 0-8 3.582031-8 8s3.582031 8 8 8h25.472656c3.339844 9.585938 12.378906 16.007812 22.527344 16.007812s19.1875-6.421874 22.527344-16.007812h329.472656c4.417969 0 8-3.582031 8-8s-3.582031-8-8-8zm0 0"/></g></svg>