<svg height="464pt" viewBox="0 -44 464 464" width="464pt" xmlns="http://www.w3.org/2000/svg"><path d="m0 336h464v40h-464zm0 0" fill="#193073"/><path d="m24 304c0 8.835938 7.164062 16 16 16h48c8.835938 0 16-7.164062 16-16s-7.164062-16-16-16h-48c-8.835938 0-16 7.164062-16 16zm0 0" fill="#145384"/><path d="m104 272c0-8.835938-7.164062-16-16-16h-48c-8.835938 0-16 7.164062-16 16s7.164062 16 16 16h48c8.835938 0 16-7.164062 16-16zm0 0" fill="#1a6fb0"/><path d="m216 272c0-8.835938-7.164062-16-16-16h-48c-8.835938 0-16 7.164062-16 16s7.164062 16 16 16h48c8.835938 0 16-7.164062 16-16zm0 0" fill="#1a6fb0"/><path d="m328 272c0-8.835938-7.164062-16-16-16h-48c-8.835938 0-16 7.164062-16 16s7.164062 16 16 16h48c8.835938 0 16-7.164062 16-16zm0 0" fill="#1a6fb0"/><path d="m328 240c0-8.835938-7.164062-16-16-16h-48c-8.835938 0-16 7.164062-16 16s7.164062 16 16 16h48c8.835938 0 16-7.164062 16-16zm0 0" fill="#3d9ae2"/><path d="m328 208c0-8.835938-7.164062-16-16-16h-48c-8.835938 0-16 7.164062-16 16s7.164062 16 16 16h48c8.835938 0 16-7.164062 16-16zm0 0" fill="#64aee8"/><path d="m328 176c0-8.835938-7.164062-16-16-16h-48c-8.835938 0-16 7.164062-16 16s7.164062 16 16 16h48c8.835938 0 16-7.164062 16-16zm0 0" fill="#00a1a7"/><path d="m328 144c0-8.835938-7.164062-16-16-16h-48c-8.835938 0-16 7.164062-16 16s7.164062 16 16 16h48c8.835938 0 16-7.164062 16-16zm0 0" fill="#00d7df"/><path d="m328 112c0-8.835938-7.164062-16-16-16h-48c-8.835938 0-16 7.164062-16 16s7.164062 16 16 16h48c8.835938 0 16-7.164062 16-16zm0 0" fill="#33dfe5"/><path d="m440 112c0-8.835938-7.164062-16-16-16h-48c-8.835938 0-16 7.164062-16 16s7.164062 16 16 16h48c8.835938 0 16-7.164062 16-16zm0 0" fill="#33dfe5"/><path d="m440 272c0-8.835938-7.164062-16-16-16h-48c-8.835938 0-16 7.164062-16 16s7.164062 16 16 16h48c8.835938 0 16-7.164062 16-16zm0 0" fill="#1a6fb0"/><path d="m440 240c0-8.835938-7.164062-16-16-16h-48c-8.835938 0-16 7.164062-16 16s7.164062 16 16 16h48c8.835938 0 16-7.164062 16-16zm0 0" fill="#3d9ae2"/><path d="m440 208c0-8.835938-7.164062-16-16-16h-48c-8.835938 0-16 7.164062-16 16s7.164062 16 16 16h48c8.835938 0 16-7.164062 16-16zm0 0" fill="#64aee8"/><path d="m440 176c0-8.835938-7.164062-16-16-16h-48c-8.835938 0-16 7.164062-16 16s7.164062 16 16 16h48c8.835938 0 16-7.164062 16-16zm0 0" fill="#00a1a7"/><path d="m440 144c0-8.835938-7.164062-16-16-16h-48c-8.835938 0-16 7.164062-16 16s7.164062 16 16 16h48c8.835938 0 16-7.164062 16-16zm0 0" fill="#00d7df"/><path d="m440 80c0-8.835938-7.164062-16-16-16h-48c-8.835938 0-16 7.164062-16 16s7.164062 16 16 16h48c8.835938 0 16-7.164062 16-16zm0 0" fill="#c2dff6"/><path d="m424 32h-48c-8.835938 0-16 7.164062-16 16s7.164062 16 16 16h48c8.835938 0 16-7.164062 16-16s-7.164062-16-16-16zm0 0" fill="#daecfa"/><path d="m440 16c0-8.835938-7.164062-16-16-16h-48c-8.835938 0-16 7.164062-16 16s7.164062 16 16 16h48c8.835938 0 16-7.164062 16-16zm0 0" fill="#e7f2fb"/><path d="m104 240c0-8.835938-7.164062-16-16-16h-48c-8.835938 0-16 7.164062-16 16s7.164062 16 16 16h48c8.835938 0 16-7.164062 16-16zm0 0" fill="#3d9ae2"/><path d="m104 208c0-8.835938-7.164062-16-16-16h-48c-8.835938 0-16 7.164062-16 16s7.164062 16 16 16h48c8.835938 0 16-7.164062 16-16zm0 0" fill="#64aee8"/><path d="m104 176c0-8.835938-7.164062-16-16-16h-48c-8.835938 0-16 7.164062-16 16s7.164062 16 16 16h48c8.835938 0 16-7.164062 16-16zm0 0" fill="#00a1a7"/><g fill="#145384"><path d="m136 304c0 8.835938 7.164062 16 16 16h48c8.835938 0 16-7.164062 16-16s-7.164062-16-16-16h-48c-8.835938 0-16 7.164062-16 16zm0 0"/><path d="m248 304c0 8.835938 7.164062 16 16 16h48c8.835938 0 16-7.164062 16-16s-7.164062-16-16-16h-48c-8.835938 0-16 7.164062-16 16zm0 0"/><path d="m360 304c0 8.835938 7.164062 16 16 16h48c8.835938 0 16-7.164062 16-16s-7.164062-16-16-16h-48c-8.835938 0-16 7.164062-16 16zm0 0"/></g></svg>