<?xml version="1.0" encoding="utf-8"?>
<!-- Generator: Adobe Illustrator 16.0.0, SVG Export Plug-In . SVG Version: 6.00 Build 0)  -->
<!DOCTYPE svg PUBLIC "-//W3C//DTD SVG 1.1//EN" "http://www.w3.org/Graphics/SVG/1.1/DTD/svg11.dtd">
<svg version="1.1" id="Layer_1" xmlns="http://www.w3.org/2000/svg" xmlns:xlink="http://www.w3.org/1999/xlink" x="0px" y="0px"
	 width="1400px" height="980px" viewBox="0 0 1400 980" enable-background="new 0 0 1400 980" xml:space="preserve">
<g>
	<g>
		<g>
			<path d="M305.991,404.057c-3.713,0-7.364-1.015-10.557-2.935c-11.537-6.933-24.495-10.597-37.469-10.598
				c-12.975,0-25.929,3.665-37.466,10.598c-3.193,1.918-6.843,2.933-10.554,2.933c-7.171,0.001-13.919-3.813-17.609-9.954
				c-5.829-9.7-2.679-22.334,7.021-28.163c17.92-10.769,38.187-16.461,58.61-16.461c20.424,0.001,40.691,5.694,58.61,16.462
				c9.701,5.831,12.85,18.464,7.021,28.164C319.908,400.243,313.161,404.057,305.991,404.057z M257.965,382.148
				c14.495,0,28.943,4.079,41.784,11.794c1.891,1.138,4.05,1.738,6.242,1.738c4.312,0,8.21-2.203,10.427-5.893
				c3.451-5.741,1.586-13.219-4.155-16.67c-16.617-9.985-35.393-15.264-54.296-15.266c-18.903,0-37.678,5.279-54.296,15.265
				c-5.741,3.45-7.605,10.928-4.155,16.669c2.218,3.69,6.116,5.893,10.429,5.892c2.191,0,4.349-0.6,6.241-1.736
				C229.023,386.227,243.471,382.148,257.965,382.148z"/>
		</g>
		<g>
			<path d="M214.139,585.55C214.139,585.55,214.139,585.55,214.139,585.55c-5.979,0-11.441-3.75-13.59-9.329l-24.077-62.464
				c-2.888-7.491,0.857-15.937,8.35-18.826c1.683-0.647,3.445-0.979,5.236-0.979c5.979,0,11.441,3.75,13.59,9.329l24.077,62.466
				c1.399,3.629,1.301,7.586-0.276,11.142c-1.577,3.557-4.445,6.285-8.075,7.684C217.691,585.221,215.93,585.55,214.139,585.55z
				 M190.057,502.329c-0.757,0-1.506,0.141-2.223,0.417c-3.182,1.227-4.774,4.814-3.547,7.998l24.076,62.465
				c0.915,2.37,3.234,3.964,5.775,3.964l0,0c0.757,0,1.505-0.141,2.222-0.415c1.542-0.596,2.761-1.754,3.431-3.266
				c0.67-1.509,0.711-3.19,0.117-4.731l-24.076-62.466C194.918,503.923,192.597,502.329,190.057,502.329z"/>
			<path d="M198.118,582.063C198.117,582.063,198.117,582.063,198.118,582.063c-9.773-0.002-18.699-6.127-22.214-15.248
				l-11.389-29.548c-4.72-12.247,1.403-26.049,13.648-30.767c2.157-0.835,4.583,0.242,5.414,2.401l25.496,66.148
				c0.4,1.036,0.372,2.189-0.079,3.205c-0.45,1.015-1.286,1.81-2.322,2.209C203.922,581.524,201.043,582.063,198.118,582.063z
				 M177.474,516.356c-2.094,1.562-3.762,3.645-4.851,6.097c-1.67,3.767-1.774,7.958-0.292,11.803l11.39,29.548
				c2.278,5.911,8.064,9.882,14.397,9.883l0,0c0.479,0,0.955-0.022,1.428-0.067L177.474,516.356z"/>
		</g>
		<g>
			<path d="M301.795,585.55c-1.792,0-3.553-0.327-5.234-0.978c-3.63-1.398-6.498-4.127-8.075-7.683
				c-1.577-3.555-1.676-7.513-0.276-11.143l24.076-62.464c2.15-5.581,7.612-9.331,13.59-9.331c1.792,0,3.553,0.331,5.237,0.979
				c7.492,2.89,11.237,11.335,8.349,18.827l-24.076,62.463C313.235,581.801,307.773,585.55,301.795,585.55z M325.875,502.329
				c-2.54,0-4.861,1.594-5.775,3.966l-24.076,62.466c-0.594,1.541-0.552,3.223,0.118,4.733c0.67,1.51,1.889,2.668,3.431,3.264
				c0.718,0.276,1.466,0.415,2.223,0.415c2.54,0,4.861-1.594,5.775-3.964l24.075-62.465c1.227-3.184-0.364-6.77-3.547-7.996
				C327.381,502.47,326.633,502.329,325.875,502.329z"/>
			<path d="M317.816,582.064c-2.927,0-5.805-0.538-8.556-1.6c-1.036-0.399-1.872-1.194-2.322-2.209
				c-0.451-1.014-0.479-2.168-0.079-3.203l25.497-66.15c0.832-2.156,3.256-3.236,5.414-2.401
				c12.246,4.718,18.368,18.522,13.647,30.767l-11.39,29.55C336.514,575.937,327.587,582.064,317.816,582.064z M316.387,573.619
				c0.475,0.046,0.951,0.069,1.429,0.069c6.332,0,12.118-3.973,14.396-9.885l11.391-29.548c2.537-6.582,0.24-13.859-5.145-17.894
				L316.387,573.619z"/>
		</g>
		<path d="M180.297,509.213c-1.747,0-3.376-1.099-3.966-2.847c-5.258-15.552-7.603-28.393-7.603-41.635
			c0-25.633,12.197-51.472,32.627-69.119c1.751-1.51,4.395-1.319,5.907,0.432c1.512,1.75,1.319,4.395-0.432,5.908
			c-18.614,16.078-29.727,39.546-29.727,62.779c0,12.29,2.209,24.303,7.161,38.953c0.741,2.192-0.435,4.567-2.626,5.309
			C181.194,509.143,180.742,509.213,180.297,509.213z"/>
		<path d="M335.637,509.215c-0.445,0-0.897-0.07-1.342-0.221c-2.191-0.741-3.367-3.118-2.626-5.311
			c4.952-14.648,7.16-26.661,7.16-38.952c0-23.14-11.043-46.549-29.541-62.62c-1.747-1.517-1.932-4.162-0.415-5.908
			c1.517-1.746,4.165-1.931,5.909-0.415c20.302,17.638,32.423,43.411,32.423,68.943c0,13.243-2.345,26.083-7.602,41.634
			C339.013,508.114,337.383,509.215,335.637,509.215z"/>
		<path d="M169.168,524.212c-1.689,0-3.28-1.028-3.916-2.702c-6.275-16.511-12.082-34.817-12.082-56.779
			c0-30.123,14.244-60.386,38.103-80.955c1.752-1.51,4.397-1.313,5.907,0.438c1.51,1.752,1.314,4.397-0.438,5.907
			c-22.038,18.999-35.196,46.89-35.196,74.61c0,20.61,5.544,38.04,11.536,53.804c0.822,2.161-0.265,4.581-2.427,5.402
			C170.165,524.124,169.662,524.212,169.168,524.212z"/>
		<path d="M346.765,524.212c-0.495,0-0.997-0.088-1.487-0.274c-2.162-0.821-3.25-3.239-2.427-5.402
			c5.991-15.765,11.536-33.193,11.536-53.803c0-27.698-13.141-55.575-35.153-74.574c-1.751-1.512-1.946-4.156-0.435-5.907
			c1.512-1.752,4.156-1.946,5.907-0.435c23.83,20.568,38.057,50.817,38.057,80.916c0,21.961-5.807,40.267-12.082,56.779
			C350.045,523.184,348.454,524.212,346.765,524.212z"/>
	</g>
	<g>
		<path d="M587.128,460.931c-1.092,0-2.163-0.427-2.962-1.227l-67.768-67.768c-1.163-1.163-1.538-2.899-0.958-4.438
			c2.861-7.591,7.225-14.353,12.969-20.096c10.723-10.724,24.98-16.629,40.145-16.629s29.423,5.906,40.146,16.63
			c22.136,22.135,22.136,58.154,0,80.291c-5.744,5.745-12.505,10.107-20.096,12.969
			C588.124,460.842,587.624,460.931,587.128,460.931z M524.288,387.98l63.833,63.834c5.472-2.409,10.392-5.78,14.656-10.043
			c18.87-18.872,18.87-49.575,0-68.446c-9.142-9.141-21.296-14.176-34.224-14.176s-25.082,5.034-34.223,14.175
			C530.069,377.587,526.698,382.508,524.288,387.98z"/>
		<path d="M446.874,556.615c-1.076,0-2.148-0.412-2.962-1.228l-23.197-23.198c-1.542-1.541-1.643-4.008-0.23-5.671
			c0.479-0.565,48.208-56.839,67.506-83.541c3.584-4.959,6.268-12.252,9.109-19.974c4.382-11.909,9.349-25.408,19.416-36.568
			c0.769-0.852,1.854-1.351,3.002-1.38c1.136-0.013,2.257,0.412,3.069,1.225l67.236,67.235c0.813,0.812,1.255,1.922,1.226,3.069
			c-0.029,1.148-0.528,2.233-1.382,3.002c-11.16,10.067-24.659,15.035-36.568,19.417c-7.721,2.841-15.014,5.525-19.972,9.108
			c-26.703,19.298-82.978,67.028-83.543,67.508C448.798,556.284,447.835,556.615,446.874,556.615z M429.361,528.991l17.749,17.749
			c12.016-10.139,57.699-48.498,81.109-65.417c5.891-4.258,13.709-7.135,21.986-10.18c9.959-3.665,21.101-7.765,30.451-14.948
			l-60.749-60.748c-7.184,9.35-11.283,20.491-14.948,30.45c-3.046,8.277-5.923,16.096-10.181,21.988
			C477.86,471.294,439.501,516.977,429.361,528.991z"/>
		<path d="M526.221,491.466c-1.071,0-2.144-0.409-2.961-1.227l-37.805-37.805c-1.636-1.635-1.636-4.287,0-5.922
			c1.634-1.636,4.288-1.636,5.922,0l37.805,37.805c1.636,1.635,1.636,4.287,0,5.922
			C528.365,491.057,527.292,491.466,526.221,491.466z"/>
		<path d="M508.481,505.598c-1.072,0-2.144-0.409-2.961-1.227l-33.954-33.953c-1.636-1.635-1.636-4.287,0-5.922
			c1.634-1.636,4.288-1.636,5.922,0l33.954,33.953c1.636,1.636,1.636,4.288,0,5.923
			C510.625,505.188,509.553,505.598,508.481,505.598z"/>
		<path d="M604.798,447.979c-1.072,0-2.144-0.409-2.961-1.227l-73.427-73.427c-1.636-1.635-1.636-4.288,0-5.922
			c1.634-1.636,4.288-1.636,5.922,0l73.427,73.427c1.636,1.635,1.636,4.287,0,5.922
			C606.941,447.569,605.869,447.979,604.798,447.979z"/>
		<path d="M410.288,580.962c-1.084,0-2.156-0.42-2.963-1.227l-10.958-10.958c-1.337-1.339-1.612-3.408-0.67-5.049
			c0.441-0.766,10.943-18.97,24.409-35.537c0.748-0.92,1.85-1.479,3.035-1.542c1.188-0.065,2.339,0.383,3.176,1.221l21.915,21.916
			c0.837,0.838,1.282,1.993,1.22,3.176c-0.061,1.185-0.621,2.287-1.541,3.034c-16.567,13.467-34.771,23.968-35.538,24.41
			C411.721,580.778,411.001,580.962,410.288,580.962z M404.591,565.155l6.356,6.354c5.15-3.109,16.756-10.367,28.039-19.121
			l-15.271-15.271C414.952,548.407,407.7,560.007,404.591,565.155z"/>
	</g>
	<g>
		<g>
			<path d="M710.255,532.613h-43.879c-7.014,0-12.72-5.707-12.72-12.72v-87.057c0-7.014,5.707-12.721,12.72-12.721h43.879
				c2.313,0,4.188,1.875,4.188,4.188v104.12C714.443,530.738,712.568,532.613,710.255,532.613z M666.375,428.493
				c-2.396,0-4.344,1.948-4.344,4.344v87.057c0,2.395,1.948,4.343,4.344,4.343h39.691v-95.744H666.375z"/>
			<path d="M806.707,581.679c-0.651,0-1.302-0.15-1.899-0.455l-96.452-49.067c-1.405-0.713-2.289-2.156-2.289-3.731v-104.12
				c0-1.577,0.884-3.019,2.289-3.733l96.452-49.065c1.301-0.66,2.849-0.599,4.089,0.162c1.241,0.761,1.999,2.114,1.999,3.57V577.49
				c0,1.456-0.758,2.81-1.999,3.57C808.226,581.473,807.466,581.679,806.707,581.679z M714.443,525.856l88.075,44.806V382.068
				l-88.075,44.805V525.856z"/>
			<path d="M806.707,507.371c-2.313,0-4.188-1.875-4.188-4.188s1.875-4.188,4.188-4.188c11.913,0,21.605-9.693,21.605-21.606
				c0-11.913-9.692-21.606-21.605-21.606c-2.313,0-4.188-1.875-4.188-4.188s1.875-4.188,4.188-4.188
				c16.532,0,29.981,13.45,29.981,29.982C836.688,493.92,823.239,507.371,806.707,507.371z"/>
		</g>
		<path d="M826.833,529.195c-1.765,0-3.406-1.124-3.981-2.894c-0.714-2.201,0.49-4.563,2.689-5.278
			c18.951-6.154,31.686-23.69,31.686-43.635c0-18.942-11.894-36.184-29.598-42.901c-2.163-0.82-3.25-3.239-2.43-5.401
			c0.819-2.163,3.237-3.25,5.4-2.43c20.938,7.944,35.004,28.333,35.004,50.732c0,23.586-15.062,44.322-37.475,51.603
			C827.699,529.13,827.262,529.195,826.833,529.195z"/>
		<path d="M852.358,541.089c-1.413,0-2.794-0.716-3.583-2.012c-1.201-1.977-0.572-4.555,1.403-5.756
			c19.716-11.981,31.487-32.89,31.487-55.932c0-23.046-11.773-43.958-31.493-55.939c-1.977-1.201-2.606-3.777-1.405-5.754
			c1.202-1.977,3.777-2.604,5.754-1.405c22.243,13.515,35.521,37.103,35.521,63.099c0,25.993-13.276,49.577-35.513,63.091
			C853.851,540.893,853.1,541.089,852.358,541.089z"/>
		<path d="M877.693,552.214c-1.241,0-2.471-0.55-3.298-1.604c-1.427-1.818-1.109-4.451,0.71-5.88
			c20.833-16.347,32.782-40.894,32.782-67.341c0-26.451-11.949-50.998-32.785-67.346c-1.819-1.428-2.139-4.061-0.71-5.881
			c1.428-1.82,4.059-2.137,5.879-0.709c22.875,17.947,35.992,44.895,35.992,73.936c0,29.037-13.117,55.984-35.987,73.931
			C879.51,551.923,878.599,552.214,877.693,552.214z"/>
	</g>
	<g>
		<g>
			<path d="M1027.156,523.667h-44.648c-7.096,0-12.871-5.773-12.871-12.87v-88.582c0-7.097,5.775-12.871,12.871-12.871h44.648
				c2.313,0,4.188,1.875,4.188,4.188v105.946C1031.344,521.793,1029.469,523.667,1027.156,523.667z M982.508,417.721
				c-2.479,0-4.494,2.016-4.494,4.494v88.582c0,2.479,2.016,4.494,4.494,4.494h40.46v-97.57H982.508z"/>
			<path d="M1125.3,573.594c-0.651,0-1.302-0.15-1.899-0.455l-98.143-49.928c-1.406-0.713-2.29-2.156-2.29-3.731V413.533
				c0-1.577,0.884-3.019,2.29-3.733l98.143-49.926c1.301-0.66,2.849-0.598,4.089,0.162c1.241,0.762,1.999,2.114,1.999,3.571v205.798
				c0,1.456-0.758,2.809-1.999,3.569C1126.818,573.388,1126.06,573.594,1125.3,573.594z M1031.344,516.91l89.768,45.666v-192.14
				l-89.768,45.665V516.91z"/>
			<path d="M1125.3,497.982c-2.313,0-4.188-1.875-4.188-4.188s1.875-4.188,4.188-4.188c12.162,0,22.057-9.895,22.057-22.057
				c0-12.163-9.895-22.059-22.057-22.059c-2.313,0-4.188-1.875-4.188-4.188s1.875-4.188,4.188-4.188
				c16.78,0,30.434,13.653,30.434,30.435S1142.08,497.982,1125.3,497.982z"/>
		</g>
		<path d="M1230.914,515.112c-4.25,0-8.247-1.655-11.254-4.66l-21.437-21.438l-21.438,21.436c-3.004,3.007-7.002,4.662-11.252,4.662
			c-4.251,0-8.249-1.655-11.253-4.662c-3.007-3.004-4.663-7.002-4.663-11.253c0-4.25,1.656-8.248,4.663-11.254l21.435-21.437
			l-21.437-21.438c-3.005-3.005-4.661-7.002-4.661-11.253s1.656-8.248,4.661-11.254c3.006-3.005,7.003-4.661,11.255-4.661
			c4.25,0,8.247,1.656,11.252,4.662L1198.224,444l21.437-21.437c3.007-3.006,7.004-4.662,11.254-4.662s8.247,1.656,11.254,4.661
			c3.006,3.006,4.661,7.003,4.661,11.254c0,4.251-1.655,8.248-4.661,11.253l-21.437,21.438l21.437,21.438
			c6.206,6.204,6.206,16.302,0,22.506C1239.161,513.457,1235.164,515.112,1230.914,515.112z M1198.224,478.903
			c1.11,0,2.176,0.441,2.961,1.227l24.397,24.397c1.426,1.424,3.318,2.209,5.332,2.209s3.907-0.785,5.332-2.209
			c1.423-1.423,2.207-3.315,2.207-5.33c0-2.014-0.784-3.906-2.207-5.33l-24.399-24.399c-0.787-0.786-1.228-1.851-1.228-2.961
			s0.44-2.176,1.228-2.961l24.399-24.399c1.423-1.424,2.207-3.317,2.207-5.331c0-2.014-0.784-3.907-2.207-5.331
			c-1.425-1.423-3.318-2.208-5.332-2.208s-3.906,0.785-5.332,2.209l-24.397,24.397c-1.57,1.572-4.352,1.572-5.922,0l-24.399-24.399
			c-1.424-1.423-3.318-2.208-5.33-2.208c-2.016,0-3.907,0.784-5.332,2.208c-1.425,1.424-2.207,3.317-2.207,5.331
			c0,2.014,0.782,3.907,2.207,5.33l24.399,24.4c0.787,0.785,1.227,1.85,1.227,2.961s-0.439,2.176-1.227,2.961l-24.397,24.399
			c-1.426,1.424-2.209,3.316-2.209,5.33c0,2.015,0.783,3.907,2.209,5.33c1.423,1.424,3.315,2.209,5.33,2.209
			c2.014,0,3.906-0.785,5.33-2.209l24.399-24.397C1196.048,479.344,1197.112,478.903,1198.224,478.903z"/>
	</g>
	<g>
		<path d="M770.024,855.092H622.043c-2.313,0-4.188-1.875-4.188-4.188V597.309c0-2.313,1.875-4.188,4.188-4.188h147.981
			c2.313,0,4.188,1.875,4.188,4.188v253.595C774.213,853.217,772.338,855.092,770.024,855.092z M626.231,846.715h139.605V601.497
			H626.231V846.715z"/>
		<path d="M696.033,827.041c-31.061,0-56.331-25.271-56.331-56.332c0-31.061,25.27-56.33,56.331-56.33s56.332,25.27,56.332,56.33
			C752.364,801.771,727.094,827.041,696.033,827.041z M696.033,722.755c-26.442,0-47.955,21.514-47.955,47.954
			c0,26.443,21.513,47.955,47.955,47.955c26.443,0,47.955-21.512,47.955-47.955C743.987,744.269,722.476,722.755,696.033,722.755z"
			/>
		<path d="M696.033,801.354c-16.897,0-30.644-13.747-30.644-30.645c0-16.896,13.747-30.642,30.644-30.642
			c16.899,0,30.644,13.745,30.644,30.642C726.677,787.606,712.932,801.354,696.033,801.354z M696.033,748.443
			c-12.278,0-22.268,9.989-22.268,22.266c0,12.28,9.99,22.269,22.268,22.269c12.279,0,22.268-9.988,22.268-22.269
			C718.301,758.433,708.312,748.443,696.033,748.443z"/>
		<path d="M696.033,676.146c-16.588,0-30.084-13.495-30.084-30.084c0-16.59,13.496-30.085,30.084-30.085
			c16.587,0,30.084,13.495,30.084,30.085C726.117,662.651,712.62,676.146,696.033,676.146z M696.033,624.354
			c-11.97,0-21.708,9.739-21.708,21.709c0,11.969,9.738,21.708,21.708,21.708c11.971,0,21.708-9.739,21.708-21.708
			C717.741,634.093,708.004,624.354,696.033,624.354z"/>
		<path d="M696.033,658.836c-7.043,0-12.772-5.73-12.772-12.773s5.729-12.774,12.772-12.774c7.043,0,12.772,5.731,12.772,12.774
			S703.076,658.836,696.033,658.836z M696.033,641.664c-2.423,0-4.396,1.974-4.396,4.398c0,2.424,1.973,4.397,4.396,4.397
			c2.424,0,4.396-1.974,4.396-4.397C700.429,643.638,698.457,641.664,696.033,641.664z"/>
	</g>
	<g>
		<g>
			<path d="M1080.928,831.945c-1.765,0-3.405-1.124-3.981-2.896c-0.714-2.199,0.491-4.562,2.689-5.276
				c17.414-5.655,29.112-21.768,29.112-40.091c0-17.403-10.928-33.243-27.195-39.418c-2.16-0.819-3.249-3.239-2.428-5.401
				c0.821-2.161,3.239-3.249,5.402-2.428c19.498,7.397,32.598,26.387,32.598,47.247c0,21.966-14.025,41.278-34.901,48.059
				C1081.794,831.88,1081.357,831.945,1080.928,831.945z"/>
			<path d="M1104.556,842.955c-1.415,0-2.796-0.716-3.583-2.015c-1.202-1.977-0.574-4.552,1.403-5.753
				c18.153-11.034,28.992-30.289,28.992-51.505c0-21.219-10.842-40.475-28.998-51.508c-1.977-1.202-2.606-3.779-1.404-5.755
				c1.201-1.979,3.776-2.605,5.753-1.404c20.679,12.566,33.025,34.497,33.025,58.667c0,24.168-12.344,46.097-33.02,58.661
				C1106.046,842.758,1105.295,842.955,1104.556,842.955z"/>
			<path d="M926.024,831.199c-0.494,0-0.998-0.088-1.485-0.273c-19.498-7.399-32.6-26.387-32.6-47.249
				c0-21.964,14.026-41.276,34.901-48.057c2.204-0.713,4.563,0.489,5.277,2.689c0.716,2.199-0.488,4.562-2.689,5.278
				c-17.413,5.654-29.112,21.766-29.112,40.089c0,17.403,10.929,33.245,27.193,39.418c2.163,0.821,3.251,3.239,2.432,5.401
				C929.305,830.169,927.713,831.199,926.024,831.199z"/>
			<path d="M904.518,842.955c-0.739,0-1.49-0.197-2.17-0.609c-20.681-12.564-33.027-34.497-33.027-58.669
				c0-24.167,12.344-46.097,33.021-58.661c1.977-1.202,4.551-0.574,5.752,1.404c1.202,1.976,0.572,4.553-1.403,5.754
				c-18.155,11.033-28.993,30.287-28.993,51.503c0,21.222,10.84,40.478,28.999,51.51c1.977,1.202,2.606,3.777,1.405,5.754
				C907.313,842.237,905.933,842.955,904.518,842.955z"/>
		</g>
		<g>
			<path d="M1012.158,643.064c-2.313,0-4.188-1.874-4.188-4.188v-18.936c0-1.086-0.884-1.97-1.97-1.97
				c-1.087,0-1.97,0.884-1.97,1.97v18.936c0,2.313-1.875,4.188-4.188,4.188s-4.188-1.874-4.188-4.188v-18.936
				c0-5.706,4.642-10.346,10.347-10.346c5.704,0,10.346,4.64,10.346,10.346v18.936
				C1016.347,641.19,1014.472,643.064,1012.158,643.064z"/>
			<path d="M1006.001,803.885h-71.104c-1.89,0-3.544-1.265-4.041-3.088c-0.35-1.287-3.179-12.592,3.811-18.818
				c3.743-6.577,13.388-64.976,19.128-104.943c0.164-25.579,20.601-42.311,52.163-42.651c31.649,0.341,52.087,17.072,52.247,42.651
				c5.742,39.966,15.387,98.359,19.13,104.943c6.99,6.225,4.162,17.531,3.812,18.817c-0.497,1.822-2.151,3.087-4.041,3.087
				L1006.001,803.885z M938.448,795.508l135.104-0.001c0.2-2.577-0.041-5.819-1.9-7.367c-1.855-1.548-4.656-3.884-13.686-58.052
				c-4.344-26.063-8.058-51.893-8.095-52.151c-0.028-0.198-0.043-0.396-0.043-0.594c0-31.647-33.582-34.471-43.872-34.582
				c-10.203,0.111-43.787,2.935-43.787,34.582c0,0.197-0.013,0.396-0.042,0.594c-0.036,0.259-3.75,26.089-8.095,52.151
				c-9.027,54.168-11.832,56.504-13.686,58.05C938.489,789.688,938.249,792.927,938.448,795.508z"/>
			<path d="M1054.018,681.53h-96.035c-2.313,0-4.188-1.874-4.188-4.188s1.875-4.188,4.188-4.188h96.035
				c2.313,0,4.188,1.875,4.188,4.188S1056.331,681.53,1054.018,681.53z"/>
			<path d="M1065.887,755.314H946.113c-2.313,0-4.188-1.875-4.188-4.188c0-2.313,1.875-4.188,4.188-4.188h119.773
				c2.313,0,4.188,1.875,4.188,4.188C1070.075,753.439,1068.2,755.314,1065.887,755.314z"/>
			<path d="M1007.346,823.274c-13.003,0-23.582-10.577-23.582-23.578c0-2.313,1.875-4.188,4.188-4.188s4.188,1.875,4.188,4.188
				c0,8.383,6.82,15.202,15.205,15.202c8.381,0,15.201-6.819,15.201-15.202c0-2.313,1.875-4.188,4.188-4.188
				s4.188,1.875,4.188,4.188C1030.924,812.697,1020.347,823.274,1007.346,823.274z"/>
		</g>
	</g>
	<g>
		<g>
			<path d="M370.86,839.948c-51.432,0-93.274-41.842-93.274-93.275c0-51.431,41.842-93.273,93.274-93.273
				s93.274,41.843,93.274,93.273C464.134,798.106,422.292,839.948,370.86,839.948z M370.86,661.775
				c-46.813,0-84.898,38.085-84.898,84.897c0,46.813,38.085,84.899,84.898,84.899c46.813,0,84.898-38.086,84.898-84.899
				C455.758,699.86,417.673,661.775,370.86,661.775z"/>
			<path d="M370.86,769.255c-12.451,0-22.581-10.13-22.581-22.582c0-12.449,10.13-22.58,22.581-22.58s22.581,10.131,22.581,22.58
				C393.441,759.125,383.311,769.255,370.86,769.255z M370.86,732.47c-7.833,0-14.205,6.372-14.205,14.203
				c0,7.834,6.372,14.206,14.205,14.206s14.205-6.372,14.205-14.206C385.064,738.842,378.692,732.47,370.86,732.47z"/>
			<path d="M370.86,753.759c-3.907,0-7.084-3.179-7.084-7.086c0-3.906,3.178-7.083,7.084-7.083s7.085,3.177,7.085,7.083
				C377.945,750.58,374.767,753.759,370.86,753.759z M370.86,745.383c-0.712,0-1.292,0.579-1.292,1.29
				c0,0.714,0.579,1.293,1.292,1.293s1.292-0.579,1.292-1.293C372.151,745.962,371.572,745.383,370.86,745.383z"/>
		</g>
		<g>
			<path d="M457.296,857.171H284.42c-6.425,0-12.466-2.501-17.01-7.046c-4.545-4.545-7.047-10.585-7.047-17.012v-172.88
				c0.002-6.427,2.504-12.467,7.047-17.008c4.544-4.545,10.585-7.048,17.01-7.048h172.875c6.428,0,12.471,2.503,17.015,7.048
				c4.542,4.541,7.044,10.581,7.046,17.004v172.884c0,6.425-2.502,12.467-7.046,17.012
				C469.767,854.668,463.725,857.171,457.296,857.171z M284.42,644.554c-4.188,0-8.125,1.631-11.088,4.594
				c-2.96,2.961-4.591,6.897-4.593,11.086v172.88c0,4.188,1.631,8.125,4.593,11.089c2.963,2.961,6.9,4.593,11.088,4.593h172.875
				c4.191,0,8.13-1.632,11.091-4.593c2.962-2.964,4.593-6.9,4.593-11.089v-172.88c-0.002-4.188-1.633-8.125-4.593-11.086
				c-2.962-2.963-6.901-4.594-11.091-4.594H284.42z"/>
			<path d="M414.605,748.053L414.605,748.053c-0.205,0-0.412-0.009-0.621-0.026c-1.962-0.165-3.744-1.085-5.016-2.59l-4.04-4.784
				c-1.271-1.505-1.88-3.416-1.716-5.376c0.168-1.97,1.089-3.746,2.59-5.016l17.403-13.854c1.382-1.168,3.318-1.802,5.281-1.636
				c1.968,0.166,3.748,1.086,5.017,2.588l4.039,4.785c1.271,1.504,1.88,3.413,1.715,5.376c-0.165,1.968-1.086,3.75-2.594,5.021
				l-17.398,13.848C418.028,747.436,416.34,748.053,414.605,748.053z M411.994,736.036l2.746,3.252l15.738-12.528l-2.746-3.252
				L411.994,736.036z"/>
			<path d="M432.326,726.644c-1.071,0-2.142-0.407-2.959-1.226c-1.637-1.633-1.639-4.284-0.004-5.922l17.945-17.974l20.095-56.735
				c0.773-2.179,3.168-3.319,5.346-2.55c2.181,0.772,3.322,3.167,2.55,5.347l-20.411,57.626c-0.208,0.589-0.544,1.123-0.984,1.563
				l-18.613,18.643C434.471,726.233,433.399,726.644,432.326,726.644z"/>
		</g>
	</g>
	<g>
		<path d="M669.879,291.865c-39.643,0-47.965-17.462-47.965-32.111v-98.082c0-14.648,8.323-32.11,47.973-32.11
			c39.645,0,47.966,17.462,47.966,32.11v98.082C717.853,274.403,709.528,291.865,669.879,291.865z M669.887,137.938
			c-39.596,0-39.596,17.863-39.596,23.733v98.082c0,5.87,0,23.734,39.588,23.734c39.597,0,39.597-17.864,39.597-23.734v-98.082
			C709.476,155.802,709.476,137.938,669.887,137.938z"/>
		<path d="M714.332,223.354h-88.229c-2.313,0-4.188-1.875-4.188-4.188v-30.242c0-2.313,1.875-4.188,4.188-4.188h88.229
			c2.313,0,4.188,1.875,4.188,4.188v30.242C718.52,221.479,716.645,223.354,714.332,223.354z M630.291,214.977h79.853v-21.865
			h-79.853V214.977z"/>
		<path d="M669.887,180.81c-2.313,0-4.188-1.875-4.188-4.188V133.75c0-2.313,1.875-4.188,4.188-4.188
			c2.313,0,4.188,1.875,4.188,4.188v42.872C674.075,178.935,672.2,180.81,669.887,180.81z"/>
		<path d="M685.325,178.641c-2.313,0-4.188-1.875-4.188-4.188v-38.875c0-2.313,1.875-4.188,4.188-4.188s4.188,1.875,4.188,4.188
			v38.875C689.513,176.766,687.639,178.641,685.325,178.641z"/>
		<path d="M653.88,178.641c-2.313,0-4.188-1.875-4.188-4.188v-38.875c0-2.313,1.875-4.188,4.188-4.188
			c2.313,0,4.188,1.875,4.188,4.188v38.875C658.068,176.766,656.193,178.641,653.88,178.641z"/>
		<path d="M669.887,291.864c-2.313,0-4.188-1.875-4.188-4.188v-48.2c0-2.313,1.875-4.188,4.188-4.188
			c2.313,0,4.188,1.875,4.188,4.188v48.2C674.075,289.989,672.2,291.864,669.887,291.864z"/>
		<path d="M685.325,289.424c-2.313,0-4.188-1.875-4.188-4.188V241.53c0-2.313,1.875-4.188,4.188-4.188s4.188,1.875,4.188,4.188
			v43.706C689.513,287.549,687.639,289.424,685.325,289.424z"/>
		<path d="M653.88,289.424c-2.313,0-4.188-1.875-4.188-4.188V241.53c0-2.313,1.875-4.188,4.188-4.188
			c2.313,0,4.188,1.875,4.188,4.188v43.706C658.068,287.549,656.193,289.424,653.88,289.424z"/>
		<path d="M683.315,379.427h-26.358c-2.313,0-4.188-1.875-4.188-4.188v-56.688c0-2.313,1.875-4.188,4.188-4.188
			c2.313,0,4.188,1.875,4.188,4.188v52.5h17.982v-52.5c0-2.313,1.875-4.188,4.188-4.188s4.188,1.875,4.188,4.188v56.688
			C687.503,377.552,685.629,379.427,683.315,379.427z"/>
		<path d="M669.449,323.617h-0.006c-41.4-1.417-76.251-29.882-76.251-62.161v-37.688c0-5.638,6.336-9.28,16.142-9.28
			c9.805,0,16.142,3.643,16.142,9.28v37.688c0,13.583,23.422,29.067,43.968,29.067s43.969-15.484,43.969-29.067v-37.688
			c0-5.725,6.449-9.28,16.835-9.28c10.384,0,16.834,3.556,16.834,9.28v37.688c0,31.697-36.21,60.743-77.488,62.159
			C669.544,323.616,669.496,323.617,669.449,323.617z M601.568,224.349v37.107c0,27.375,31.702,52.48,67.875,53.782
			c36.914-1.324,69.262-26.431,69.262-53.782v-37.038c-1.012-0.636-4.009-1.554-8.458-1.554c-4.45,0-7.447,0.918-8.459,1.554v37.038
			c0,20.166-28.783,37.443-52.345,37.443s-52.344-17.278-52.344-37.443v-37.107c-0.92-0.605-3.677-1.485-7.765-1.485
			S602.488,223.744,601.568,224.349z"/>
	</g>
	<g>
		<g>
			<path d="M518.527,334.584h-31.794c-2.313,0-4.188-1.875-4.188-4.188v-16.949c0-2.313,1.875-4.188,4.188-4.188h31.794
				c2.313,0,4.188,1.875,4.188,4.188v16.949C522.715,332.709,520.84,334.584,518.527,334.584z M490.921,326.208h23.418v-8.573
				h-23.418V326.208z"/>
			<path d="M518.527,317.635h-31.794c-2.313,0-4.188-1.875-4.188-4.188v-16.948c0-2.313,1.875-4.188,4.188-4.188h31.794
				c2.313,0,4.188,1.875,4.188,4.188v16.948C522.715,315.76,520.84,317.635,518.527,317.635z M490.921,309.259h23.418v-8.572
				h-23.418V309.259z"/>
			<path d="M518.527,300.687h-31.794c-2.313,0-4.188-1.875-4.188-4.188v-16.947c0-2.313,1.875-4.188,4.188-4.188h31.794
				c2.313,0,4.188,1.875,4.188,4.188v16.947C522.715,298.812,520.84,300.687,518.527,300.687z M490.921,292.311h23.418v-8.571
				h-23.418V292.311z"/>
			<path d="M518.527,283.739h-31.794c-2.313,0-4.188-1.875-4.188-4.188v-16.948c0-2.313,1.875-4.188,4.188-4.188h31.794
				c2.313,0,4.188,1.875,4.188,4.188v16.948C522.715,281.865,520.84,283.739,518.527,283.739z M490.921,275.363h23.418v-8.572
				h-23.418V275.363z"/>
			<path d="M518.527,266.791h-31.794c-2.313,0-4.188-1.875-4.188-4.188v-16.948c0-2.313,1.875-4.188,4.188-4.188h31.794
				c2.313,0,4.188,1.875,4.188,4.188v16.948C522.715,264.917,520.84,266.791,518.527,266.791z M490.921,258.415h23.418v-8.572
				h-23.418V258.415z"/>
			<path d="M518.527,249.843h-31.794c-2.313,0-4.188-1.875-4.188-4.188v-16.948c0-2.313,1.875-4.188,4.188-4.188h31.794
				c2.313,0,4.188,1.875,4.188,4.188v16.948C522.715,247.968,520.84,249.843,518.527,249.843z M490.921,241.467h23.418v-8.572
				h-23.418V241.467z"/>
			<path d="M518.527,232.895h-31.794c-2.313,0-4.188-1.875-4.188-4.188v-16.948c0-2.313,1.875-4.188,4.188-4.188h31.794
				c2.313,0,4.188,1.875,4.188,4.188v16.948C522.715,231.02,520.84,232.895,518.527,232.895z M490.921,224.519h23.418v-8.572
				h-23.418V224.519z"/>
			<path d="M518.527,215.947h-31.794c-2.313,0-4.188-1.875-4.188-4.188V194.81c0-2.313,1.875-4.188,4.188-4.188h31.794
				c2.313,0,4.188,1.875,4.188,4.188v16.948C522.715,214.072,520.84,215.947,518.527,215.947z M490.921,207.57h23.418v-8.572
				h-23.418V207.57z"/>
			<path d="M518.527,198.999h-31.794c-2.313,0-4.188-1.875-4.188-4.188v-16.949c0-2.313,1.875-4.188,4.188-4.188h31.794
				c2.313,0,4.188,1.875,4.188,4.188v16.949C522.715,197.124,520.84,198.999,518.527,198.999z M490.921,190.622h23.418v-8.573
				h-23.418V190.622z"/>
			<path d="M468.164,334.584H436.37c-2.313,0-4.188-1.875-4.188-4.188v-16.949c0-2.313,1.875-4.188,4.188-4.188h31.794
				c2.313,0,4.188,1.875,4.188,4.188v16.949C472.352,332.709,470.477,334.584,468.164,334.584z M440.558,326.208h23.417v-8.573
				h-23.417V326.208z"/>
			<path d="M468.164,317.635H436.37c-2.313,0-4.188-1.875-4.188-4.188v-16.948c0-2.313,1.875-4.188,4.188-4.188h31.794
				c2.313,0,4.188,1.875,4.188,4.188v16.948C472.352,315.76,470.477,317.635,468.164,317.635z M440.558,309.259h23.417v-8.572
				h-23.417V309.259z"/>
			<path d="M468.164,300.687H436.37c-2.313,0-4.188-1.875-4.188-4.188v-16.947c0-2.313,1.875-4.188,4.188-4.188h31.794
				c2.313,0,4.188,1.875,4.188,4.188v16.947C472.352,298.812,470.477,300.687,468.164,300.687z M440.558,292.311h23.417v-8.571
				h-23.417V292.311z"/>
			<path d="M468.164,283.739H436.37c-2.313,0-4.188-1.875-4.188-4.188v-16.948c0-2.313,1.875-4.188,4.188-4.188h31.794
				c2.313,0,4.188,1.875,4.188,4.188v16.948C472.352,281.865,470.477,283.739,468.164,283.739z M440.558,275.363h23.417v-8.572
				h-23.417V275.363z"/>
			<path d="M468.164,266.791H436.37c-2.313,0-4.188-1.875-4.188-4.188v-16.948c0-2.313,1.875-4.188,4.188-4.188h31.794
				c2.313,0,4.188,1.875,4.188,4.188v16.948C472.352,264.917,470.477,266.791,468.164,266.791z M440.558,258.415h23.417v-8.572
				h-23.417V258.415z"/>
			<path d="M468.164,249.843H436.37c-2.313,0-4.188-1.875-4.188-4.188v-16.948c0-2.313,1.875-4.188,4.188-4.188h31.794
				c2.313,0,4.188,1.875,4.188,4.188v16.948C472.352,247.968,470.477,249.843,468.164,249.843z M440.558,241.467h23.417v-8.572
				h-23.417V241.467z"/>
			<path d="M417.801,334.584h-31.793c-2.313,0-4.188-1.875-4.188-4.188v-16.949c0-2.313,1.875-4.188,4.188-4.188h31.793
				c2.313,0,4.188,1.875,4.188,4.188v16.949C421.989,332.709,420.114,334.584,417.801,334.584z M390.196,326.208h23.417v-8.573
				h-23.417V326.208z"/>
			<path d="M417.801,317.635h-31.793c-2.313,0-4.188-1.875-4.188-4.188v-16.948c0-2.313,1.875-4.188,4.188-4.188h31.793
				c2.313,0,4.188,1.875,4.188,4.188v16.948C421.989,315.76,420.114,317.635,417.801,317.635z M390.196,309.259h23.417v-8.572
				h-23.417V309.259z"/>
			<path d="M417.801,300.687h-31.793c-2.313,0-4.188-1.875-4.188-4.188v-16.947c0-2.313,1.875-4.188,4.188-4.188h31.793
				c2.313,0,4.188,1.875,4.188,4.188v16.947C421.989,298.812,420.114,300.687,417.801,300.687z M390.196,292.311h23.417v-8.571
				h-23.417V292.311z"/>
			<path d="M417.801,283.739h-31.793c-2.313,0-4.188-1.875-4.188-4.188v-16.948c0-2.313,1.875-4.188,4.188-4.188h31.793
				c2.313,0,4.188,1.875,4.188,4.188v16.948C421.989,281.865,420.114,283.739,417.801,283.739z M390.196,275.363h23.417v-8.572
				h-23.417V275.363z"/>
			<path d="M417.801,266.791h-31.793c-2.313,0-4.188-1.875-4.188-4.188v-16.948c0-2.313,1.875-4.188,4.188-4.188h31.793
				c2.313,0,4.188,1.875,4.188,4.188v16.948C421.989,264.917,420.114,266.791,417.801,266.791z M390.196,258.415h23.417v-8.572
				h-23.417V258.415z"/>
			<path d="M417.801,249.843h-31.793c-2.313,0-4.188-1.875-4.188-4.188v-16.948c0-2.313,1.875-4.188,4.188-4.188h31.793
				c2.313,0,4.188,1.875,4.188,4.188v16.948C421.989,247.968,420.114,249.843,417.801,249.843z M390.196,241.467h23.417v-8.572
				h-23.417V241.467z"/>
			<path d="M417.801,232.895h-31.793c-2.313,0-4.188-1.875-4.188-4.188v-16.948c0-2.313,1.875-4.188,4.188-4.188h31.793
				c2.313,0,4.188,1.875,4.188,4.188v16.948C421.989,231.02,420.114,232.895,417.801,232.895z M390.196,224.519h23.417v-8.572
				h-23.417V224.519z"/>
			<path d="M417.801,215.947h-31.793c-2.313,0-4.188-1.875-4.188-4.188V194.81c0-2.313,1.875-4.188,4.188-4.188h31.793
				c2.313,0,4.188,1.875,4.188,4.188v16.948C421.989,214.072,420.114,215.947,417.801,215.947z M390.196,207.57h23.417v-8.572
				h-23.417V207.57z"/>
			<path d="M417.801,198.999h-31.793c-2.313,0-4.188-1.875-4.188-4.188v-16.949c0-2.313,1.875-4.188,4.188-4.188h31.793
				c2.313,0,4.188,1.875,4.188,4.188v16.949C421.989,197.124,420.114,198.999,417.801,198.999z M390.196,190.622h23.417v-8.573
				h-23.417V190.622z"/>
			<path d="M417.801,182.049h-31.793c-2.313,0-4.188-1.875-4.188-4.188v-16.947c0-2.313,1.875-4.188,4.188-4.188h31.793
				c2.313,0,4.188,1.875,4.188,4.188v16.947C421.989,180.174,420.114,182.049,417.801,182.049z M390.196,173.673h23.417v-8.57
				h-23.417V173.673z"/>
			<path d="M417.801,165.103h-31.793c-2.313,0-4.188-1.875-4.188-4.188v-16.949c0-2.313,1.875-4.188,4.188-4.188h31.793
				c2.313,0,4.188,1.875,4.188,4.188v16.949C421.989,163.228,420.114,165.103,417.801,165.103z M390.196,156.727h23.417v-8.573
				h-23.417V156.727z"/>
			<path d="M417.801,148.154h-31.793c-2.313,0-4.188-1.875-4.188-4.188v-16.948c0-2.313,1.875-4.188,4.188-4.188h31.793
				c2.313,0,4.188,1.875,4.188,4.188v16.948C421.989,146.279,420.114,148.154,417.801,148.154z M390.196,139.777h23.417v-8.572
				h-23.417V139.777z"/>
			<path d="M367.439,334.584h-31.794c-2.313,0-4.188-1.875-4.188-4.188v-16.949c0-2.313,1.875-4.188,4.188-4.188h31.794
				c2.313,0,4.188,1.875,4.188,4.188v16.949C371.627,332.709,369.752,334.584,367.439,334.584z M339.833,326.208h23.418v-8.573
				h-23.418V326.208z"/>
			<path d="M367.439,317.635h-31.794c-2.313,0-4.188-1.875-4.188-4.188v-16.948c0-2.313,1.875-4.188,4.188-4.188h31.794
				c2.313,0,4.188,1.875,4.188,4.188v16.948C371.627,315.76,369.752,317.635,367.439,317.635z M339.833,309.259h23.418v-8.572
				h-23.418V309.259z"/>
			<path d="M367.439,300.687h-31.794c-2.313,0-4.188-1.875-4.188-4.188v-16.947c0-2.313,1.875-4.188,4.188-4.188h31.794
				c2.313,0,4.188,1.875,4.188,4.188v16.947C371.627,298.812,369.752,300.687,367.439,300.687z M339.833,292.311h23.418v-8.571
				h-23.418V292.311z"/>
			<path d="M367.439,283.739h-31.794c-2.313,0-4.188-1.875-4.188-4.188v-16.948c0-2.313,1.875-4.188,4.188-4.188h31.794
				c2.313,0,4.188,1.875,4.188,4.188v16.948C371.627,281.865,369.752,283.739,367.439,283.739z M339.833,275.363h23.418v-8.572
				h-23.418V275.363z"/>
			<path d="M367.439,266.791h-31.794c-2.313,0-4.188-1.875-4.188-4.188v-16.948c0-2.313,1.875-4.188,4.188-4.188h31.794
				c2.313,0,4.188,1.875,4.188,4.188v16.948C371.627,264.917,369.752,266.791,367.439,266.791z M339.833,258.415h23.418v-8.572
				h-23.418V258.415z"/>
			<path d="M367.439,249.843h-31.794c-2.313,0-4.188-1.875-4.188-4.188v-16.948c0-2.313,1.875-4.188,4.188-4.188h31.794
				c2.313,0,4.188,1.875,4.188,4.188v16.948C371.627,247.968,369.752,249.843,367.439,249.843z M339.833,241.467h23.418v-8.572
				h-23.418V241.467z"/>
			<path d="M367.439,232.895h-31.794c-2.313,0-4.188-1.875-4.188-4.188v-16.948c0-2.313,1.875-4.188,4.188-4.188h31.794
				c2.313,0,4.188,1.875,4.188,4.188v16.948C371.627,231.02,369.752,232.895,367.439,232.895z M339.833,224.519h23.418v-8.572
				h-23.418V224.519z"/>
			<path d="M367.439,215.947h-31.794c-2.313,0-4.188-1.875-4.188-4.188V194.81c0-2.313,1.875-4.188,4.188-4.188h31.794
				c2.313,0,4.188,1.875,4.188,4.188v16.948C371.627,214.072,369.752,215.947,367.439,215.947z M339.833,207.57h23.418v-8.572
				h-23.418V207.57z"/>
		</g>
		<path d="M541.759,334.584H314.195c-2.313,0-4.188-1.875-4.188-4.188s1.875-4.188,4.188-4.188h227.563
			c2.313,0,4.188,1.875,4.188,4.188S544.072,334.584,541.759,334.584z"/>
	</g>
	<path d="M875.289,199.16c-20.908,0-37.918-17.01-37.918-37.918s17.01-37.918,37.918-37.918s37.919,17.01,37.919,37.918
		S896.197,199.16,875.289,199.16z M875.289,131.7c-16.289,0-29.542,13.252-29.542,29.542c0,16.29,13.253,29.542,29.542,29.542
		s29.543-13.253,29.543-29.542C904.832,144.953,891.578,131.7,875.289,131.7z"/>
	<polygon points="865.822,146.374 891.593,161.242 865.822,176.109 	"/>
	<path d="M963.846,199.16c-20.908,0-37.916-17.01-37.916-37.918s17.008-37.918,37.916-37.918s37.919,17.01,37.919,37.918
		S984.754,199.16,963.846,199.16z M963.846,131.7c-16.288,0-29.54,13.252-29.54,29.542c0,16.29,13.252,29.542,29.54,29.542
		c16.29,0,29.543-13.253,29.543-29.542C993.389,144.953,980.136,131.7,963.846,131.7z"/>
	<rect x="952.437" y="149.832" width="22.818" height="22.818"/>
	<path d="M1047.745,199.16c-20.908,0-37.918-17.01-37.918-37.918s17.01-37.918,37.918-37.918s37.918,17.01,37.918,37.918
		S1068.653,199.16,1047.745,199.16z M1047.745,131.7c-16.29,0-29.541,13.252-29.541,29.542c0,16.29,13.251,29.542,29.541,29.542
		s29.541-13.253,29.541-29.542C1077.286,144.953,1064.035,131.7,1047.745,131.7z"/>
	<g>
		<rect x="1036.717" y="147.083" width="8.547" height="28.315"/>
		<rect x="1050.229" y="147.083" width="8.545" height="28.315"/>
	</g>
	<path d="M875.289,362.656c-20.908,0-37.917-17.01-37.917-37.918s17.009-37.918,37.917-37.918s37.919,17.01,37.919,37.918
		S896.197,362.656,875.289,362.656z M875.289,295.196c-16.289,0-29.54,13.252-29.54,29.542S859,354.28,875.289,354.28
		s29.543-13.253,29.543-29.542S891.578,295.196,875.289,295.196z"/>
	<polygon points="876.947,310.729 896.212,324.738 876.947,338.746 	"/>
	<rect x="858.52" y="310.58" width="8.962" height="28.315"/>
	<path d="M875.289,280.472c-20.908,0-37.917-17.009-37.917-37.917s17.009-37.918,37.917-37.918s37.919,17.01,37.919,37.918
		S896.197,280.472,875.289,280.472z M875.289,213.013c-16.289,0-29.54,13.252-29.54,29.542s13.251,29.542,29.54,29.542
		s29.543-13.252,29.543-29.542S891.578,213.013,875.289,213.013z"/>
	<circle cx="875.291" cy="242.555" r="9.37"/>
	<path d="M963.846,362.656c-20.908,0-37.916-17.009-37.916-37.917s17.008-37.918,37.916-37.918s37.919,17.01,37.919,37.918
		S984.754,362.656,963.846,362.656z M963.846,295.197c-16.288,0-29.54,13.252-29.54,29.542c0,16.289,13.252,29.542,29.54,29.542
		c16.29,0,29.543-13.253,29.543-29.542C993.389,308.45,980.136,295.197,963.846,295.197z"/>
	<polygon points="948.003,310.729 967.265,324.736 948.003,338.746 	"/>
	<rect x="971.892" y="310.58" width="8.96" height="28.315"/>
	<path d="M963.846,280.472c-20.908,0-37.918-17.01-37.918-37.918s17.01-37.917,37.918-37.917s37.919,17.009,37.919,37.917
		S984.754,280.472,963.846,280.472z M963.846,213.012c-16.288,0-29.541,13.252-29.541,29.542c0,16.29,13.253,29.542,29.541,29.542
		c16.29,0,29.543-13.252,29.543-29.542C993.389,226.265,980.136,213.012,963.846,213.012z"/>
	<g>
		<polygon points="962.537,256.562 943.274,242.554 962.537,228.546 		"/>
		<polygon points="965.364,237.619 977.84,228.546 977.84,256.562 965.36,247.488 		"/>
	</g>
	<path d="M1047.747,280.472c-20.908,0-37.92-17.009-37.92-37.917s17.012-37.918,37.92-37.918s37.916,17.01,37.916,37.918
		S1068.655,280.472,1047.747,280.472z M1047.747,213.012c-16.292,0-29.543,13.252-29.543,29.542
		c0,16.289,13.251,29.542,29.543,29.542c16.288,0,29.539-13.252,29.539-29.542C1077.286,226.265,1064.035,213.012,1047.747,213.012z
		"/>
	<g>
		<polygon points="1049.056,228.546 1068.318,242.555 1049.056,256.562 		"/>
		<polygon points="1046.229,247.49 1033.751,256.562 1033.751,228.546 1046.23,237.621 		"/>
	</g>
	<path d="M1047.745,362.656c-20.908,0-37.918-17.009-37.918-37.917s17.01-37.918,37.918-37.918s37.918,17.01,37.918,37.918
		S1068.653,362.656,1047.745,362.656z M1047.745,295.197c-16.29,0-29.541,13.252-29.541,29.542
		c0,16.289,13.251,29.542,29.541,29.542s29.541-13.253,29.541-29.542C1077.286,308.45,1064.035,295.197,1047.745,295.197z"/>
	<g>
		<g>
			<path d="M1038.068,342.935h-4.791c-2.313,0-4.188-1.875-4.188-4.188v-28.658c0-2.313,1.875-4.188,4.188-4.188h11.59
				c2.313,0,4.188,1.875,4.188,4.188c0,2.313-1.875,4.188-4.188,4.188h-7.401v20.282h0.603c2.313,0,4.188,1.875,4.188,4.188
				S1040.382,342.935,1038.068,342.935z"/>
			<g>
				<polygon points="1043.156,315.935 1053.283,310.088 1043.156,304.241 				"/>
			</g>
		</g>
		<g>
			<path d="M1062.948,342.935h-10.915c-2.313,0-4.188-1.875-4.188-4.188s1.875-4.188,4.188-4.188h6.728v-20.284
				c-2.247-0.077-4.045-1.921-4.045-4.186c0-2.313,1.875-4.188,4.188-4.188h4.044c2.313,0,4.188,1.875,4.188,4.188v28.658
				C1067.137,341.06,1065.262,342.935,1062.948,342.935z"/>
			<g>
				<polygon points="1053.744,332.899 1043.617,338.746 1053.744,344.593 				"/>
			</g>
		</g>
	</g>
</g>
</svg>
